solid xperiaZ1CompactHolder4
facet normal 0.0 -0.620774000255241 0.783989566644293
outer loop
vertex 193.046181201477 41.5465569356788 5.55690974652124
vertex 103.046181201477 42.4857077177689 6.22761330988206
vertex 103.046181201477 41.5465569356788 5.55690974652124
endloop
endfacet
facet normal 0.0 -0.540139105955109 0.841575751918992
outer loop
vertex 103.046181201477 42.4857077177689 6.22761330988206
vertex 193.046181201477 41.5465569356788 5.55690974652124
vertex 193.046181201477 42.4857077177689 6.22761330988206
endloop
endfacet
facet normal 0.0 -0.695314039254728 0.718706050353881
outer loop
vertex 193.046181201477 40.6783926436437 4.79655573460266
vertex 103.046181201477 41.5465569356788 5.55690974652124
vertex 103.046181201477 40.6783926436437 4.79655573460266
endloop
endfacet
facet normal 0.0 -0.620774000255241 0.783989566644293
outer loop
vertex 103.046181201477 41.5465569356788 5.55690974652124
vertex 193.046181201477 40.6783926436437 4.79655573460266
vertex 193.046181201477 41.5465569356788 5.55690974652124
endloop
endfacet
facet normal 0.0 -0.695314039254728 0.718706050353881
outer loop
vertex 193.046181201477 40.6783926436437 4.79655573460266
vertex 103.046181201477 39.8897386131731 3.95401654760431
vertex 193.046181201477 39.8897386131731 3.95401654760431
endloop
endfacet
facet normal 0.0 -0.763027377303429 0.646366166723979
outer loop
vertex 103.046181201477 39.8897386131731 3.95401654760431
vertex 193.046181201477 40.6783926436437 4.79655573460266
vertex 103.046181201477 40.6783926436437 4.79655573460266
endloop
endfacet
facet normal 0.0 -0.540139105955109 0.841575751918992
outer loop
vertex 193.046181201477 42.4857077177689 6.22761330988206
vertex 103.046181201477 43.4866242620487 6.80208135319916
vertex 103.046181201477 42.4857077177689 6.22761330988206
endloop
endfacet
facet normal 0.0 -0.454201042237986 0.890899216090085
outer loop
vertex 103.046181201477 43.4866242620487 6.80208135319916
vertex 193.046181201477 42.4857077177689 6.22761330988206
vertex 193.046181201477 43.4866242620487 6.80208135319916
endloop
endfacet
facet normal 0.0 -0.454201042237986 0.890899216090085
outer loop
vertex 193.046181201477 43.4866242620487 6.80208135319916
vertex 103.046181201477 44.5394794148309 7.27467366023051
vertex 103.046181201477 43.4866242620487 6.80208135319916
endloop
endfacet
facet normal 3.10463841639573e-020 -0.363803562326394 0.931475693745481
outer loop
vertex 103.046181201477 44.5394794148309 7.27467366023051
vertex 193.046181201477 43.4866242620487 6.80208135319916
vertex 193.046181201477 44.5394794148309 7.27467366023051
endloop
endfacet
facet normal 3.10463841639573e-020 -0.363803562326394 0.931475693745481
outer loop
vertex 103.046181201477 44.5394794148309 7.27467366023051
vertex 193.046181201477 45.6339360811245 7.64075024649487
vertex 103.046181201477 45.6339360811245 7.64075024649487
endloop
endfacet
facet normal 6.20165169563758e-020 -0.317208421864065 0.948355849403856
outer loop
vertex 193.046181201477 45.6339360811245 7.64075024649487
vertex 103.046181201477 44.5394794148309 7.27467366023051
vertex 193.046181201477 44.5394794148309 7.27467366023051
endloop
endfacet
facet normal -7.54173599400972e-021 -0.978615608572934 0.205697570859321
outer loop
vertex 193.046181201477 37.3787927284724 -1.17842964756833
vertex 103.046181201477 37.1976506544354 -2.31818181818218
vertex 193.046181201477 37.1976506544354 -2.31818181818218
endloop
endfacet
facet normal -1.5064949131693e-020 -0.987604782501669 0.156961121236538
outer loop
vertex 103.046181201477 37.1976506544354 -2.31818181818218
vertex 193.046181201477 37.3787927284724 -1.17842964756833
vertex 103.046181201477 37.3787927284724 -1.17842964756833
endloop
endfacet
facet normal 0.0 -0.953454664605795 0.301536403343695
outer loop
vertex 193.046181201477 37.671841047193 -0.0621993199475131
vertex 103.046181201477 37.3787927284724 -1.17842964756833
vertex 193.046181201477 37.3787927284724 -1.17842964756833
endloop
endfacet
facet normal -7.54173599400981e-021 -0.978615608572935 0.205697570859321
outer loop
vertex 103.046181201477 37.3787927284724 -1.17842964756833
vertex 193.046181201477 37.671841047193 -0.0621993199475131
vertex 103.046181201477 37.671841047193 -0.0621993199475131
endloop
endfacet
facet normal 0.0 -0.91893255503876 0.394414704708047
outer loop
vertex 193.046181201477 38.0739184168068 1.01954984240479
vertex 103.046181201477 37.671841047193 -0.0621993199475131
vertex 193.046181201477 37.671841047193 -0.0621993199475131
endloop
endfacet
facet normal 0.0 -0.953454664605795 0.301536403343695
outer loop
vertex 103.046181201477 37.671841047193 -0.0621993199475131
vertex 193.046181201477 38.0739184168068 1.01954984240479
vertex 103.046181201477 38.0739184168068 1.01954984240479
endloop
endfacet
facet normal 0.0 -0.875388223291495 0.483420581401496
outer loop
vertex 193.046181201477 38.5810771794118 2.05619705863529
vertex 103.046181201477 38.0739184168068 1.01954984240479
vertex 193.046181201477 38.0739184168068 1.01954984240479
endloop
endfacet
facet normal 0.0 -0.91893255503876 0.394414704708047
outer loop
vertex 103.046181201477 38.0739184168068 1.01954984240479
vertex 193.046181201477 38.5810771794118 2.05619705863529
vertex 103.046181201477 38.5810771794118 2.05619705863529
endloop
endfacet
facet normal 0.0 -0.823249194358688 0.567680159938474
outer loop
vertex 193.046181201477 39.188337971711 3.0375643657846
vertex 103.046181201477 38.5810771794118 2.05619705863529
vertex 193.046181201477 38.5810771794118 2.05619705863529
endloop
endfacet
facet normal 0.0 -0.875388223291495 0.483420581401496
outer loop
vertex 103.046181201477 38.5810771794118 2.05619705863529
vertex 193.046181201477 39.188337971711 3.0375643657846
vertex 103.046181201477 39.188337971711 3.0375643657846
endloop
endfacet
facet normal 0.0 -0.763027377303429 0.646366166723979
outer loop
vertex 193.046181201477 39.8897386131731 3.95401654760431
vertex 103.046181201477 39.188337971711 3.0375643657846
vertex 193.046181201477 39.188337971711 3.0375643657846
endloop
endfacet
facet normal 0.0 -0.823249194358688 0.567680159938474
outer loop
vertex 103.046181201477 39.188337971711 3.0375643657846
vertex 193.046181201477 39.8897386131731 3.95401654760431
vertex 103.046181201477 39.8897386131731 3.95401654760431
endloop
endfacet
facet normal 0.0 -0.995893206467704 0.0905357460425186
outer loop
vertex 193.046181201477 45.6339360811245 7.64075024649487
vertex 182.236283134452 45.7820854837395 9.27039367526021
vertex 103.046181201477 45.6339360811245 7.64075024649487
endloop
endfacet
facet normal 0.0 -0.995893206467704 0.0905357460425186
outer loop
vertex 182.236283134452 45.7820854837395 9.27039367526021
vertex 193.046181201477 45.6339360811245 7.64075024649487
vertex 193.046181201477 51.2142302462907 69.0239860633225
endloop
endfacet
facet normal 0.0 -0.995893206467704 0.0905357460425186
outer loop
vertex 182.236283134452 45.7820854837395 9.27039367526021
vertex 193.046181201477 51.2142302462907 69.0239860633225
vertex 182.236283134452 51.2142302462907 69.0239860633225
endloop
endfacet
facet normal 0.0 -0.995893206467704 0.0905357460425186
outer loop
vertex 103.046181201477 45.6339360811245 7.64075024649487
vertex 127.704083217803 45.7820854837395 9.27039367526021
vertex 103.046181201477 51.6669089765033 74.003452095661
endloop
endfacet
facet normal 0.0 -0.995893206467704 0.0905357460425186
outer loop
vertex 127.704083217803 45.7820854837395 9.27039367526021
vertex 103.046181201477 45.6339360811245 7.64075024649487
vertex 182.236283134452 45.7820854837395 9.27039367526021
endloop
endfacet
facet normal 0.0 -0.995893206467704 0.0905357460425186
outer loop
vertex 103.046181201477 51.6669089765033 74.003452095661
vertex 127.704083217803 45.7820854837395 9.27039367526021
vertex 127.704083217803 51.6669089765033 74.003452095661
endloop
endfacet
facet normal 0.0 0.995893206467704 -0.0905357460425186
outer loop
vertex 103.046181201477 65.428342374966 4.47199913500672
vertex 107.046181201477 65.6340852291469 6.7351705309962
vertex 193.046181201477 65.428342374966 4.47199913500672
endloop
endfacet
facet normal 0.0 0.995893206467704 -0.0905357460425186
outer loop
vertex 107.046181201477 65.6340852291469 6.7351705309962
vertex 103.046181201477 65.428342374966 4.47199913500672
vertex 103.046181201477 65.815156721232 8.72695694393161
endloop
endfacet
facet normal 0.0 0.995893206467704 -0.0905357460425186
outer loop
vertex 107.046181201477 65.6340852291469 6.7351705309962
vertex 103.046181201477 65.815156721232 8.72695694393161
vertex 107.046181201477 65.815156721232 8.72695694393161
endloop
endfacet
facet normal 0.0 0.995893206467704 -0.0905357460425186
outer loop
vertex 103.046181201477 71.5847731058573 72.1927371748107
vertex 107.046181201477 66.1772997054021 12.7105297698024
vertex 103.046181201477 66.1772997054021 12.7105297698024
endloop
endfacet
facet normal 0.0 0.995893206467704 -0.0905357460425186
outer loop
vertex 107.046181201477 66.1772997054021 12.7105297698024
vertex 103.046181201477 71.5847731058573 72.1927371748107
vertex 107.046181201477 66.5394426895721 16.6941025956732
endloop
endfacet
facet normal 0.0 0.995893206467704 -0.0905357460425186
outer loop
vertex 107.046181201477 66.5394426895721 16.6941025956732
vertex 103.046181201477 71.5847731058573 72.1927371748107
vertex 111.046181201477 66.5394426895721 16.6941025956732
endloop
endfacet
facet normal 0.0 0.995893206467704 -0.0905357460425186
outer loop
vertex 111.046181201477 66.5394426895721 16.6941025956732
vertex 127.704083217803 65.6999496130936 7.45967875440984
vertex 111.046181201477 65.6340852291469 6.7351705309962
endloop
endfacet
facet normal 0.0 0.995893206467704 -0.0905357460425186
outer loop
vertex 127.704083217803 65.6999496130936 7.45967875440984
vertex 111.046181201477 66.5394426895721 16.6941025956732
vertex 127.704083217803 71.5847731058573 72.1927371748107
endloop
endfacet
facet normal 0.0 0.995893206467704 -0.0905357460425186
outer loop
vertex 127.704083217803 71.5847731058573 72.1927371748107
vertex 111.046181201477 66.5394426895721 16.6941025956732
vertex 103.046181201477 71.5847731058573 72.1927371748107
endloop
endfacet
facet normal 0.0 0.995893206467704 -0.0905357460425186
outer loop
vertex 193.046181201477 65.428342374966 4.47199913500672
vertex 182.236283134452 65.6999496130936 7.45967875440984
vertex 193.046181201477 71.1320943756447 67.2132711424722
endloop
endfacet
facet normal 0.0 0.995893206467704 -0.0905357460425186
outer loop
vertex 182.236283134452 65.6999496130936 7.45967875440984
vertex 193.046181201477 65.428342374966 4.47199913500672
vertex 111.046181201477 65.6340852291469 6.7351705309962
endloop
endfacet
facet normal 0.0 0.995893206467704 -0.0905357460425186
outer loop
vertex 111.046181201477 65.6340852291469 6.7351705309962
vertex 193.046181201477 65.428342374966 4.47199913500672
vertex 107.046181201477 65.6340852291469 6.7351705309962
endloop
endfacet
facet normal 0.0 0.995893206467704 -0.0905357460425186
outer loop
vertex 182.236283134452 65.6999496130936 7.45967875440984
vertex 111.046181201477 65.6340852291469 6.7351705309962
vertex 127.704083217803 65.6999496130936 7.45967875440984
endloop
endfacet
facet normal 0.0 0.995893206467704 -0.0905357460425186
outer loop
vertex 193.046181201477 71.1320943756447 67.2132711424722
vertex 182.236283134452 65.6999496130936 7.45967875440984
vertex 182.236283134452 71.1320943756447 67.2132711424722
endloop
endfacet
facet normal 1.89828311395956e-019 0.0905357460425186 0.995893206467704
outer loop
vertex 188.046181201477 50.3088727858655 3.83824891270908
vertex 122.546181201477 60.2678048505425 2.9328914522839
vertex 122.546181201477 50.3088727858655 3.83824891270908
endloop
endfacet
facet normal 1.89828311395956e-019 0.0905357460425186 0.995893206467704
outer loop
vertex 122.546181201477 60.2678048505425 2.9328914522839
vertex 188.046181201477 50.3088727858655 3.83824891270908
vertex 188.046181201477 60.2678048505425 2.9328914522839
endloop
endfacet
facet normal -1.0 0.0 0.0
outer loop
vertex 182.236283134452 51.2142302462907 69.0239860633225
vertex 182.236283134452 50.7615515160781 8.81771494504761
vertex 182.236283134452 45.7820854837395 9.27039367526021
endloop
endfacet
facet normal -1.0 0.0 0.0
outer loop
vertex 182.236283134452 50.7615515160781 8.81771494504761
vertex 182.236283134452 51.2142302462907 69.0239860633225
vertex 182.236283134452 56.1936962786292 68.5713073331099
endloop
endfacet
facet normal 0.0 -0.995893206467704 0.0905357460425186
outer loop
vertex 189.546181201477 63.662895327137 67.892289237791
vertex 188.046181201477 58.2307505645858 8.13869684972872
vertex 189.546181201477 58.2307505645858 8.13869684972872
endloop
endfacet
facet normal 0.0 -0.995893206467704 0.0905357460425186
outer loop
vertex 188.046181201477 58.2307505645858 8.13869684972872
vertex 189.546181201477 63.662895327137 67.892289237791
vertex 188.046181201477 63.662895327137 67.892289237791
endloop
endfacet
facet normal -1.0 0.0 0.0
outer loop
vertex 188.046181201477 56.1936962786292 68.5713073331099
vertex 188.046181201477 53.2512845322474 8.59137557994131
vertex 188.046181201477 50.3088727858655 3.83824891270908
endloop
endfacet
facet normal -1.0 0.0 0.0
outer loop
vertex 188.046181201477 53.2512845322474 8.59137557994131
vertex 188.046181201477 56.1936962786292 68.5713073331099
vertex 188.046181201477 58.6834292947985 68.3449679680037
endloop
endfacet
facet normal -1.0 0.0 0.0
outer loop
vertex 188.046181201477 53.2512845322474 8.59137557994131
vertex 188.046181201477 60.2678048505425 2.9328914522839
vertex 188.046181201477 50.3088727858655 3.83824891270908
endloop
endfacet
facet normal -1.0 0.0 0.0
outer loop
vertex 188.046181201477 60.2678048505425 2.9328914522839
vertex 188.046181201477 53.2512845322474 8.59137557994131
vertex 188.046181201477 58.2307505645858 8.13869684972872
endloop
endfacet
facet normal -1.0 0.0 0.0
outer loop
vertex 188.046181201477 60.2678048505425 2.9328914522839
vertex 188.046181201477 58.2307505645858 8.13869684972872
vertex 188.046181201477 63.662895327137 67.892289237791
endloop
endfacet
facet normal -1.0 0.0 0.0
outer loop
vertex 188.046181201477 60.2678048505425 2.9328914522839
vertex 188.046181201477 63.662895327137 67.892289237791
vertex 188.046181201477 66.1526283433062 67.6659498726847
endloop
endfacet
facet normal 1.0 0.0 0.0
outer loop
vertex 122.546181201477 60.2678048505425 2.9328914522839
vertex 122.546181201477 56.4200356437355 54.4929988234983
vertex 122.546181201477 50.3088727858655 3.83824891270908
endloop
endfacet
facet normal 1.0 0.0 0.0
outer loop
vertex 122.546181201477 56.4200356437355 54.4929988234983
vertex 122.546181201477 60.2678048505425 2.9328914522839
vertex 122.546181201477 63.3912880890095 53.8592486012007
endloop
endfacet
facet normal 1.0 0.0 0.0
outer loop
vertex 122.546181201477 63.3912880890095 53.8592486012007
vertex 122.546181201477 60.2678048505425 2.9328914522839
vertex 122.546181201477 66.6053070735188 72.6454159050232
endloop
endfacet
facet normal 1.0 0.0 0.0
outer loop
vertex 122.546181201477 63.3912880890095 53.8592486012007
vertex 122.546181201477 66.6053070735188 72.6454159050232
vertex 122.546181201477 65.1114672638172 72.781219524087
endloop
endfacet
facet normal 1.0 0.0 0.0
outer loop
vertex 122.546181201477 56.4200356437355 54.4929988234983
vertex 122.546181201477 56.6463750088418 73.5507733654485
vertex 122.546181201477 50.3088727858655 3.83824891270908
endloop
endfacet
facet normal 1.0 0.0 0.0
outer loop
vertex 122.546181201477 56.6463750088418 73.5507733654485
vertex 122.546181201477 56.4200356437355 54.4929988234983
vertex 122.546181201477 58.1402148185434 73.4149697463847
endloop
endfacet
facet normal 0.0 0.0905357460425186 0.995893206467704
outer loop
vertex 189.546181201477 63.662895327137 67.892289237791
vertex 188.046181201477 66.1526283433062 67.6659498726847
vertex 188.046181201477 63.662895327137 67.892289237791
endloop
endfacet
facet normal 0.0 0.0905357460425186 0.995893206467704
outer loop
vertex 193.046181201477 51.2142302462907 69.0239860633225
vertex 182.236283134452 56.1936962786292 68.5713073331099
vertex 182.236283134452 51.2142302462907 69.0239860633225
endloop
endfacet
facet normal 0.0 0.0905357460425186 0.995893206467704
outer loop
vertex 182.236283134452 56.1936962786292 68.5713073331099
vertex 193.046181201477 51.2142302462907 69.0239860633225
vertex 188.046181201477 56.1936962786292 68.5713073331099
endloop
endfacet
facet normal 0.0 0.0905357460425186 0.995893206467704
outer loop
vertex 188.046181201477 56.1936962786292 68.5713073331099
vertex 193.046181201477 51.2142302462907 69.0239860633225
vertex 188.046181201477 58.6834292947985 68.3449679680037
endloop
endfacet
facet normal 0.0 0.0905357460425186 0.995893206467704
outer loop
vertex 188.046181201477 58.6834292947985 68.3449679680037
vertex 193.046181201477 51.2142302462907 69.0239860633225
vertex 189.546181201477 58.6834292947985 68.3449679680037
endloop
endfacet
facet normal 0.0 0.0905357460425186 0.995893206467704
outer loop
vertex 189.546181201477 58.6834292947985 68.3449679680037
vertex 193.046181201477 51.2142302462907 69.0239860633225
vertex 189.546181201477 63.662895327137 67.892289237791
endloop
endfacet
facet normal 0.0 0.0905357460425186 0.995893206467704
outer loop
vertex 188.046181201477 66.1526283433062 67.6659498726847
vertex 182.236283134452 71.1320943756447 67.2132711424722
vertex 182.236283134452 66.1526283433062 67.6659498726847
endloop
endfacet
facet normal 0.0 0.0905357460425186 0.995893206467704
outer loop
vertex 182.236283134452 71.1320943756447 67.2132711424722
vertex 188.046181201477 66.1526283433062 67.6659498726847
vertex 193.046181201477 71.1320943756447 67.2132711424722
endloop
endfacet
facet normal 0.0 0.0905357460425186 0.995893206467704
outer loop
vertex 193.046181201477 71.1320943756447 67.2132711424722
vertex 188.046181201477 66.1526283433062 67.6659498726847
vertex 189.546181201477 63.662895327137 67.892289237791
endloop
endfacet
facet normal 0.0 0.0905357460425186 0.995893206467704
outer loop
vertex 193.046181201477 71.1320943756447 67.2132711424722
vertex 189.546181201477 63.662895327137 67.892289237791
vertex 193.046181201477 51.2142302462907 69.0239860633225
endloop
endfacet
facet normal -1.0 0.0 0.0
outer loop
vertex 189.546181201477 58.6834292947985 68.3449679680037
vertex 189.546181201477 58.2307505645858 8.13869684972872
vertex 189.546181201477 53.2512845322474 8.59137557994131
endloop
endfacet
facet normal -1.0 0.0 0.0
outer loop
vertex 189.546181201477 58.2307505645858 8.13869684972872
vertex 189.546181201477 58.6834292947985 68.3449679680037
vertex 189.546181201477 63.662895327137 67.892289237791
endloop
endfacet
facet normal 0.0 0.0905357460425186 0.995893206467704
outer loop
vertex 111.546181201477 63.6176274541157 72.9170231431508
vertex 103.046181201477 71.5847731058573 72.1927371748107
vertex 103.046181201477 63.6176274541157 72.9170231431508
endloop
endfacet
facet normal 0.0 0.0905357460425186 0.995893206467704
outer loop
vertex 103.046181201477 71.5847731058573 72.1927371748107
vertex 111.546181201477 63.6176274541157 72.9170231431508
vertex 111.546181201477 65.1114672638172 72.781219524087
endloop
endfacet
facet normal 0.0 0.0905357460425186 0.995893206467704
outer loop
vertex 103.046181201477 71.5847731058573 72.1927371748107
vertex 111.546181201477 65.1114672638172 72.781219524087
vertex 127.704083217803 71.5847731058573 72.1927371748107
endloop
endfacet
facet normal 0.0 0.0905357460425186 0.995893206467704
outer loop
vertex 127.704083217803 71.5847731058573 72.1927371748107
vertex 111.546181201477 65.1114672638172 72.781219524087
vertex 122.546181201477 66.6053070735188 72.6454159050232
endloop
endfacet
facet normal 0.0 0.0905357460425186 0.995893206467704
outer loop
vertex 122.546181201477 66.6053070735188 72.6454159050232
vertex 111.546181201477 65.1114672638172 72.781219524087
vertex 122.546181201477 65.1114672638172 72.781219524087
endloop
endfacet
facet normal 0.0 0.0905357460425186 0.995893206467704
outer loop
vertex 127.704083217803 71.5847731058573 72.1927371748107
vertex 122.546181201477 66.6053070735188 72.6454159050232
vertex 127.704083217803 66.6053070735188 72.6454159050232
endloop
endfacet
facet normal 1.0 0.0 0.0
outer loop
vertex 127.704083217803 50.7615515160781 8.81771494504761
vertex 127.704083217803 51.6669089765033 74.003452095661
vertex 127.704083217803 45.7820854837395 9.27039367526021
endloop
endfacet
facet normal 1.0 0.0 0.0
outer loop
vertex 127.704083217803 51.6669089765033 74.003452095661
vertex 127.704083217803 50.7615515160781 8.81771494504761
vertex 127.704083217803 56.6463750088418 73.5507733654485
endloop
endfacet
facet normal 0.0 0.995893206467704 -0.0905357460425186
outer loop
vertex 188.046181201477 58.6834292947985 68.3449679680037
vertex 189.546181201477 53.2512845322474 8.59137557994131
vertex 188.046181201477 53.2512845322474 8.59137557994131
endloop
endfacet
facet normal 0.0 0.995893206467704 -0.0905357460425186
outer loop
vertex 189.546181201477 53.2512845322474 8.59137557994131
vertex 188.046181201477 58.6834292947985 68.3449679680037
vertex 189.546181201477 58.6834292947985 68.3449679680037
endloop
endfacet
facet normal 0.0 0.0905357460425186 0.995893206467704
outer loop
vertex 189.546181201477 53.2512845322474 8.59137557994131
vertex 188.046181201477 58.2307505645858 8.13869684972872
vertex 188.046181201477 53.2512845322474 8.59137557994131
endloop
endfacet
facet normal 0.0 0.0905357460425186 0.995893206467704
outer loop
vertex 188.046181201477 58.2307505645858 8.13869684972872
vertex 189.546181201477 53.2512845322474 8.59137557994131
vertex 189.546181201477 58.2307505645858 8.13869684972872
endloop
endfacet
facet normal -1.0 0.0 0.0
outer loop
vertex 182.236283134452 66.1526283433062 67.6659498726847
vertex 182.236283134452 65.6999496130936 7.45967875440984
vertex 182.236283134452 60.7204835807551 7.91235748462242
endloop
endfacet
facet normal -1.0 0.0 0.0
outer loop
vertex 182.236283134452 65.6999496130936 7.45967875440984
vertex 182.236283134452 66.1526283433062 67.6659498726847
vertex 182.236283134452 71.1320943756447 67.2132711424722
endloop
endfacet
facet normal 1.0 0.0 0.0
outer loop
vertex 127.704083217803 65.6999496130936 7.45967875440984
vertex 127.704083217803 66.6053070735188 72.6454159050232
vertex 127.704083217803 60.7204835807551 7.91235748462242
endloop
endfacet
facet normal 1.0 0.0 0.0
outer loop
vertex 127.704083217803 66.6053070735188 72.6454159050232
vertex 127.704083217803 65.6999496130936 7.45967875440984
vertex 127.704083217803 71.5847731058573 72.1927371748107
endloop
endfacet
facet normal 0.0 0.995893206467704 -0.0905357460425186
outer loop
vertex 122.546181201477 50.3088727858655 3.83824891270908
vertex 127.704083217803 50.7615515160781 8.81771494504761
vertex 188.046181201477 50.3088727858655 3.83824891270908
endloop
endfacet
facet normal 0.0 0.995893206467704 -0.0905357460425186
outer loop
vertex 127.704083217803 50.7615515160781 8.81771494504761
vertex 122.546181201477 50.3088727858655 3.83824891270908
vertex 122.546181201477 56.6463750088418 73.5507733654485
endloop
endfacet
facet normal 0.0 0.995893206467704 -0.0905357460425186
outer loop
vertex 127.704083217803 50.7615515160781 8.81771494504761
vertex 122.546181201477 56.6463750088418 73.5507733654485
vertex 127.704083217803 56.6463750088418 73.5507733654485
endloop
endfacet
facet normal 0.0 0.995893206467704 -0.0905357460425186
outer loop
vertex 188.046181201477 50.3088727858655 3.83824891270908
vertex 182.236283134452 50.7615515160781 8.81771494504761
vertex 188.046181201477 56.1936962786292 68.5713073331099
endloop
endfacet
facet normal 0.0 0.995893206467704 -0.0905357460425186
outer loop
vertex 182.236283134452 50.7615515160781 8.81771494504761
vertex 188.046181201477 50.3088727858655 3.83824891270908
vertex 127.704083217803 50.7615515160781 8.81771494504761
endloop
endfacet
facet normal 0.0 0.995893206467704 -0.0905357460425186
outer loop
vertex 188.046181201477 56.1936962786292 68.5713073331099
vertex 182.236283134452 50.7615515160781 8.81771494504761
vertex 182.236283134452 56.1936962786292 68.5713073331099
endloop
endfacet
facet normal 0.0 -0.995893206467704 0.0905357460425186
outer loop
vertex 188.046181201477 60.2678048505425 2.9328914522839
vertex 182.236283134452 60.7204835807551 7.91235748462242
vertex 122.546181201477 60.2678048505425 2.9328914522839
endloop
endfacet
facet normal 0.0 -0.995893206467704 0.0905357460425186
outer loop
vertex 182.236283134452 60.7204835807551 7.91235748462242
vertex 188.046181201477 60.2678048505425 2.9328914522839
vertex 188.046181201477 66.1526283433062 67.6659498726847
endloop
endfacet
facet normal 0.0 -0.995893206467704 0.0905357460425186
outer loop
vertex 182.236283134452 60.7204835807551 7.91235748462242
vertex 188.046181201477 66.1526283433062 67.6659498726847
vertex 182.236283134452 66.1526283433062 67.6659498726847
endloop
endfacet
facet normal 0.0 -0.995893206467704 0.0905357460425186
outer loop
vertex 122.546181201477 60.2678048505425 2.9328914522839
vertex 127.704083217803 60.7204835807551 7.91235748462242
vertex 122.546181201477 66.6053070735188 72.6454159050232
endloop
endfacet
facet normal 0.0 -0.995893206467704 0.0905357460425186
outer loop
vertex 127.704083217803 60.7204835807551 7.91235748462242
vertex 122.546181201477 60.2678048505425 2.9328914522839
vertex 182.236283134452 60.7204835807551 7.91235748462242
endloop
endfacet
facet normal 0.0 -0.995893206467704 0.0905357460425186
outer loop
vertex 122.546181201477 66.6053070735188 72.6454159050232
vertex 127.704083217803 60.7204835807551 7.91235748462242
vertex 127.704083217803 66.6053070735188 72.6454159050232
endloop
endfacet
facet normal 0.0 0.0905357460425186 0.995893206467704
outer loop
vertex 182.236283134452 60.7204835807551 7.91235748462242
vertex 127.704083217803 65.6999496130936 7.45967875440984
vertex 127.704083217803 60.7204835807551 7.91235748462242
endloop
endfacet
facet normal 0.0 0.0905357460425186 0.995893206467704
outer loop
vertex 127.704083217803 65.6999496130936 7.45967875440984
vertex 182.236283134452 60.7204835807551 7.91235748462242
vertex 182.236283134452 65.6999496130936 7.45967875440984
endloop
endfacet
facet normal 0.0 0.0905357460425186 0.995893206467704
outer loop
vertex 182.236283134452 45.7820854837395 9.27039367526021
vertex 127.704083217803 50.7615515160781 8.81771494504761
vertex 127.704083217803 45.7820854837395 9.27039367526021
endloop
endfacet
facet normal 0.0 0.0905357460425186 0.995893206467704
outer loop
vertex 127.704083217803 50.7615515160781 8.81771494504761
vertex 182.236283134452 45.7820854837395 9.27039367526021
vertex 182.236283134452 50.7615515160781 8.81771494504761
endloop
endfacet
facet normal 0.0 0.0905357460425186 0.995893206467704
outer loop
vertex 127.704083217803 51.6669089765033 74.003452095661
vertex 103.046181201477 59.634054628245 73.2791661273209
vertex 103.046181201477 51.6669089765033 74.003452095661
endloop
endfacet
facet normal 0.0 0.0905357460425186 0.995893206467704
outer loop
vertex 103.046181201477 59.634054628245 73.2791661273209
vertex 127.704083217803 51.6669089765033 74.003452095661
vertex 111.546181201477 58.1402148185434 73.4149697463847
endloop
endfacet
facet normal 0.0 0.0905357460425186 0.995893206467704
outer loop
vertex 111.546181201477 58.1402148185434 73.4149697463847
vertex 127.704083217803 51.6669089765033 74.003452095661
vertex 122.546181201477 56.6463750088418 73.5507733654485
endloop
endfacet
facet normal 0.0 0.0905357460425186 0.995893206467704
outer loop
vertex 122.546181201477 56.6463750088418 73.5507733654485
vertex 127.704083217803 51.6669089765033 74.003452095661
vertex 127.704083217803 56.6463750088418 73.5507733654485
endloop
endfacet
facet normal 0.0 0.0905357460425186 0.995893206467704
outer loop
vertex 122.546181201477 58.1402148185434 73.4149697463847
vertex 111.546181201477 58.1402148185434 73.4149697463847
vertex 122.546181201477 56.6463750088418 73.5507733654485
endloop
endfacet
facet normal 0.0 0.0905357460425186 0.995893206467704
outer loop
vertex 111.546181201477 59.634054628245 73.2791661273209
vertex 103.046181201477 59.634054628245 73.2791661273209
vertex 111.546181201477 58.1402148185434 73.4149697463847
endloop
endfacet
facet normal 0.0 0.814617605091511 0.579998411614179
outer loop
vertex 103.046181201477 83.8533717380578 1.23395802958176
vertex 193.046181201477 84.1444340246394 0.780889969172882
vertex 103.046181201477 84.1444340246394 0.780889969172882
endloop
endfacet
facet normal 0.0 0.866156429517507 0.499772988071068
outer loop
vertex 193.046181201477 84.1444340246394 0.780889969172882
vertex 103.046181201477 83.8533717380578 1.23395802958176
vertex 193.046181201477 83.8533717380578 1.23395802958176
endloop
endfacet
facet normal 0.0 0.866156429517507 0.499772988071068
outer loop
vertex 103.046181201477 84.1444340246394 0.780889969172882
vertex 193.046181201477 84.3910204040681 0.302159272942705
vertex 103.046181201477 84.3910204040681 0.302159272942705
endloop
endfacet
facet normal 0.0 0.909819840069504 0.415003444101254
outer loop
vertex 193.046181201477 84.3910204040681 0.302159272942705
vertex 103.046181201477 84.1444340246394 0.780889969172882
vertex 193.046181201477 84.1444340246394 0.780889969172882
endloop
endfacet
facet normal 0.0 0.755671976801337 0.654950275576062
outer loop
vertex 103.046181201477 83.5204799900365 1.65724399217932
vertex 193.046181201477 83.8533717380578 1.23395802958176
vertex 103.046181201477 83.8533717380578 1.23395802958176
endloop
endfacet
facet normal 0.0 0.814617605091511 0.579998411614179
outer loop
vertex 193.046181201477 83.8533717380578 1.23395802958176
vertex 103.046181201477 83.5204799900365 1.65724399217932
vertex 193.046181201477 83.5204799900365 1.65724399217932
endloop
endfacet
facet normal 0.0 0.68985550005068 0.723947089951901
outer loop
vertex 103.046181201477 83.1487855551876 2.04689918479861
vertex 193.046181201477 83.5204799900365 1.65724399217932
vertex 103.046181201477 83.5204799900365 1.65724399217932
endloop
endfacet
facet normal 0.0 0.755671976801337 0.654950275576062
outer loop
vertex 193.046181201477 83.5204799900365 1.65724399217932
vertex 103.046181201477 83.1487855551876 2.04689918479861
vertex 193.046181201477 83.1487855551876 2.04689918479861
endloop
endfacet
facet normal 0.0 0.54006074310523 0.841626041515249
outer loop
vertex 193.046181201477 82.3028290367751 2.71148370153986
vertex 103.046181201477 82.7416680164702 2.39938071864329
vertex 103.046181201477 82.3028290367751 2.71148370153986
endloop
endfacet
facet normal 0.0 0.617766602532827 0.78636151024516
outer loop
vertex 103.046181201477 82.7416680164702 2.39938071864329
vertex 193.046181201477 82.3028290367751 2.71148370153986
vertex 193.046181201477 82.7416680164702 2.39938071864329
endloop
endfacet
facet normal 0.0 0.972007620062788 0.23494932760039
outer loop
vertex 103.046181201477 84.7422220009977 -0.714685085477481
vertex 193.046181201477 84.8436439639838 -1.24355322353918
vertex 103.046181201477 84.8436439639838 -1.24355322353918
endloop
endfacet
facet normal 0.0 0.989966555260712 0.141301873537613
outer loop
vertex 193.046181201477 84.8436439639838 -1.24355322353918
vertex 103.046181201477 84.7422220009977 -0.714685085477481
vertex 193.046181201477 84.7422220009977 -0.714685085477481
endloop
endfacet
facet normal 0.0 0.989966555260712 0.141301873537613
outer loop
vertex 103.046181201477 84.8436439639838 -1.24355322353918
vertex 193.046181201477 84.8942325450359 -1.7796770128826
vertex 103.046181201477 84.8942325450359 -1.7796770128826
endloop
endfacet
facet normal 0.0 0.998924349234721 0.0463696506994528
outer loop
vertex 193.046181201477 84.8942325450359 -1.7796770128826
vertex 103.046181201477 84.8436439639838 -1.24355322353918
vertex 193.046181201477 84.8436439639838 -1.24355322353918
endloop
endfacet
facet normal -4.57647442403062e-016 -0.995893206467704 0.0905357460425188
outer loop
vertex 117.546181201477 62.2150372308095 40.9204891610013
vertex 103.046181201477 63.3007523429669 52.863355394733
vertex 103.046181201477 61.4900374221166 32.9454912653787
endloop
endfacet
facet normal -4.57647442403062e-016 -0.995893206467704 0.0905357460425188
outer loop
vertex 103.046181201477 63.3007523429669 52.863355394733
vertex 117.546181201477 62.2150372308095 40.9204891610013
vertex 111.546181201477 63.3007523429669 52.863355394733
endloop
endfacet
facet normal -4.57647442403062e-016 -0.995893206467704 0.0905357460425188
outer loop
vertex 111.546181201477 63.3007523429669 52.863355394733
vertex 117.546181201477 62.2150372308095 40.9204891610013
vertex 117.546181201477 63.3007523429669 52.863355394733
endloop
endfacet
facet normal 0.0 0.617766602532827 0.78636151024516
outer loop
vertex 193.046181201477 82.7416680164702 2.39938071864329
vertex 103.046181201477 83.1487855551876 2.04689918479861
vertex 103.046181201477 82.7416680164702 2.39938071864329
endloop
endfacet
facet normal 0.0 0.68985550005068 0.723947089951901
outer loop
vertex 103.046181201477 83.1487855551876 2.04689918479861
vertex 193.046181201477 82.7416680164702 2.39938071864329
vertex 193.046181201477 83.1487855551876 2.04689918479861
endloop
endfacet
facet normal 0.0 0.998924349234721 0.0463696506994528
outer loop
vertex 103.046181201477 84.8942325450359 -1.7796770128826
vertex 193.046181201477 84.8935277741076 -2.31818181818218
vertex 103.046181201477 84.8935277741076 -2.31818181818218
endloop
endfacet
facet normal 0.0 0.999999143581101 -0.00130875401256478
outer loop
vertex 193.046181201477 84.8935277741076 -2.31818181818218
vertex 103.046181201477 84.8942325450359 -1.7796770128826
vertex 193.046181201477 84.8942325450359 -1.7796770128826
endloop
endfacet
facet normal 0.0 0.909819840069504 0.415003444101254
outer loop
vertex 103.046181201477 84.3910204040681 0.302159272942705
vertex 193.046181201477 84.5908888219904 -0.197881262964207
vertex 103.046181201477 84.5908888219904 -0.197881262964207
endloop
endfacet
facet normal 0.0 0.945210832906719 0.32646053567895
outer loop
vertex 193.046181201477 84.5908888219904 -0.197881262964207
vertex 103.046181201477 84.3910204040681 0.302159272942705
vertex 193.046181201477 84.3910204040681 0.302159272942705
endloop
endfacet
facet normal 0.0 0.499320421163054 0.866417403454911
outer loop
vertex 193.046181201477 81.8362587020397 2.98037037800001
vertex 103.046181201477 82.3028290367751 2.71148370153986
vertex 103.046181201477 81.8362587020397 2.98037037800001
endloop
endfacet
facet normal 0.0 0.54006074310523 0.841626041515249
outer loop
vertex 103.046181201477 82.3028290367751 2.71148370153986
vertex 193.046181201477 81.8362587020397 2.98037037800001
vertex 193.046181201477 82.3028290367751 2.71148370153986
endloop
endfacet
facet normal 0.0 0.945210832906719 0.32646053567895
outer loop
vertex 103.046181201477 84.5908888219904 -0.197881262964207
vertex 193.046181201477 84.7422220009977 -0.714685085477481
vertex 103.046181201477 84.7422220009977 -0.714685085477481
endloop
endfacet
facet normal 0.0 0.972007620062788 0.23494932760039
outer loop
vertex 193.046181201477 84.7422220009977 -0.714685085477481
vertex 103.046181201477 84.5908888219904 -0.197881262964207
vertex 193.046181201477 84.5908888219904 -0.197881262964207
endloop
endfacet
facet normal -1.0 0.0 0.0
outer loop
vertex 117.546181201477 56.329499897693 53.4971056170306
vertex 117.546181201477 62.2150372308095 40.9204891610013
vertex 117.546181201477 55.2437847855355 41.5542393832989
endloop
endfacet
facet normal -1.0 0.0 0.0
outer loop
vertex 117.546181201477 62.2150372308095 40.9204891610013
vertex 117.546181201477 56.329499897693 53.4971056170306
vertex 117.546181201477 56.4200356437355 54.4929988234983
endloop
endfacet
facet normal -1.0 0.0 0.0
outer loop
vertex 117.546181201477 62.2150372308095 40.9204891610013
vertex 117.546181201477 56.4200356437355 54.4929988234983
vertex 117.546181201477 63.3007523429669 52.863355394733
endloop
endfacet
facet normal -1.0 0.0 0.0
outer loop
vertex 117.546181201477 63.3007523429669 52.863355394733
vertex 117.546181201477 56.4200356437355 54.4929988234983
vertex 117.546181201477 63.3912880890095 53.8592486012007
endloop
endfacet
facet normal -2.65408610122156e-015 -0.0905357460425186 -0.995893206467704
outer loop
vertex 111.546181201477 63.3007523429669 52.863355394733
vertex 103.046181201477 61.8069125332653 52.9991590137968
vertex 103.046181201477 63.3007523429669 52.863355394733
endloop
endfacet
facet normal -2.65408610122156e-015 -0.0905357460425186 -0.995893206467704
outer loop
vertex 103.046181201477 61.8069125332653 52.9991590137968
vertex 111.546181201477 63.3007523429669 52.863355394733
vertex 111.546181201477 61.8069125332653 52.9991590137968
endloop
endfacet
facet normal 1.0 0.0 0.0
outer loop
vertex 111.546181201477 57.8233397073946 53.3613019979668
vertex 111.546181201477 58.1402148185434 73.4149697463847
vertex 111.546181201477 56.329499897693 53.4971056170306
endloop
endfacet
facet normal 1.0 0.0 0.0
outer loop
vertex 111.546181201477 58.1402148185434 73.4149697463847
vertex 111.546181201477 57.8233397073946 53.3613019979668
vertex 111.546181201477 59.634054628245 73.2791661273209
endloop
endfacet
facet normal 0.0 0.995893206467704 -0.0905357460425186
outer loop
vertex 103.046181201477 56.329499897693 53.4971056170306
vertex 117.546181201477 55.2437847855355 41.5542393832989
vertex 103.046181201477 54.5187849768426 33.5792414876764
endloop
endfacet
facet normal 0.0 0.995893206467704 -0.0905357460425186
outer loop
vertex 117.546181201477 55.2437847855355 41.5542393832989
vertex 103.046181201477 56.329499897693 53.4971056170306
vertex 111.546181201477 56.329499897693 53.4971056170306
endloop
endfacet
facet normal 0.0 0.995893206467704 -0.0905357460425186
outer loop
vertex 117.546181201477 55.2437847855355 41.5542393832989
vertex 111.546181201477 56.329499897693 53.4971056170306
vertex 117.546181201477 56.329499897693 53.4971056170306
endloop
endfacet
facet normal 0.0 0.995893206467704 -0.0905357460425186
outer loop
vertex 111.546181201477 56.329499897693 53.4971056170306
vertex 117.546181201477 56.4200356437355 54.4929988234983
vertex 117.546181201477 56.329499897693 53.4971056170306
endloop
endfacet
facet normal 0.0 0.995893206467704 -0.0905357460425186
outer loop
vertex 117.546181201477 56.4200356437355 54.4929988234983
vertex 111.546181201477 56.329499897693 53.4971056170306
vertex 111.546181201477 58.1402148185434 73.4149697463847
endloop
endfacet
facet normal 0.0 0.995893206467704 -0.0905357460425186
outer loop
vertex 117.546181201477 56.4200356437355 54.4929988234983
vertex 111.546181201477 58.1402148185434 73.4149697463847
vertex 122.546181201477 56.4200356437355 54.4929988234983
endloop
endfacet
facet normal 0.0 0.995893206467704 -0.0905357460425186
outer loop
vertex 122.546181201477 56.4200356437355 54.4929988234983
vertex 111.546181201477 58.1402148185434 73.4149697463847
vertex 122.546181201477 58.1402148185434 73.4149697463847
endloop
endfacet
facet normal 0.0 -0.995893206467704 0.0905357460425186
outer loop
vertex 122.546181201477 65.1114672638172 72.781219524087
vertex 117.546181201477 63.3912880890095 53.8592486012007
vertex 122.546181201477 63.3912880890095 53.8592486012007
endloop
endfacet
facet normal 0.0 -0.995893206467704 0.0905357460425186
outer loop
vertex 117.546181201477 63.3912880890095 53.8592486012007
vertex 111.546181201477 63.3007523429669 52.863355394733
vertex 117.546181201477 63.3007523429669 52.863355394733
endloop
endfacet
facet normal 0.0 -0.995893206467704 0.0905357460425186
outer loop
vertex 111.546181201477 63.3007523429669 52.863355394733
vertex 117.546181201477 63.3912880890095 53.8592486012007
vertex 111.546181201477 65.1114672638172 72.781219524087
endloop
endfacet
facet normal 0.0 -0.995893206467704 0.0905357460425186
outer loop
vertex 111.546181201477 65.1114672638172 72.781219524087
vertex 117.546181201477 63.3912880890095 53.8592486012007
vertex 122.546181201477 65.1114672638172 72.781219524087
endloop
endfacet
facet normal -0.483442220519229 0.0792528439485285 0.871781283433814
outer loop
vertex 117.546181201477 55.2437847855355 41.5542393832989
vertex 103.046181201477 61.4900374221166 32.9454912653787
vertex 103.046181201477 54.5187849768426 33.5792414876764
endloop
endfacet
facet normal -0.483442220519229 0.0792528439485285 0.871781283433814
outer loop
vertex 103.046181201477 61.4900374221166 32.9454912653787
vertex 117.546181201477 55.2437847855355 41.5542393832989
vertex 117.546181201477 62.2150372308095 40.9204891610013
endloop
endfacet
facet normal 0.0 0.995893206467704 -0.0905357460425186
outer loop
vertex 103.046181201477 57.8233397073946 53.3613019979669
vertex 111.546181201477 59.634054628245 73.2791661273209
vertex 111.546181201477 57.8233397073946 53.3613019979668
endloop
endfacet
facet normal 0.0 0.995893206467704 -0.0905357460425186
outer loop
vertex 111.546181201477 59.634054628245 73.2791661273209
vertex 103.046181201477 57.8233397073946 53.3613019979669
vertex 103.046181201477 59.634054628245 73.2791661273209
endloop
endfacet
facet normal -2.65408610122156e-015 -0.0905357460425186 -0.995893206467704
outer loop
vertex 111.546181201477 57.8233397073946 53.3613019979668
vertex 103.046181201477 56.329499897693 53.4971056170306
vertex 103.046181201477 57.8233397073946 53.3613019979669
endloop
endfacet
facet normal -2.65408610122156e-015 -0.0905357460425186 -0.995893206467704
outer loop
vertex 103.046181201477 56.329499897693 53.4971056170306
vertex 111.546181201477 57.8233397073946 53.3613019979668
vertex 111.546181201477 56.329499897693 53.4971056170306
endloop
endfacet
facet normal 0.0 -0.995893206467704 0.0905357460425186
outer loop
vertex 111.546181201477 63.6176274541157 72.9170231431508
vertex 103.046181201477 61.8069125332653 52.9991590137968
vertex 111.546181201477 61.8069125332653 52.9991590137968
endloop
endfacet
facet normal 0.0 -0.995893206467704 0.0905357460425186
outer loop
vertex 103.046181201477 61.8069125332653 52.9991590137968
vertex 111.546181201477 63.6176274541157 72.9170231431508
vertex 103.046181201477 63.6176274541157 72.9170231431508
endloop
endfacet
facet normal 1.0 0.0 0.0
outer loop
vertex 111.546181201477 63.3007523429669 52.863355394733
vertex 111.546181201477 63.6176274541157 72.9170231431508
vertex 111.546181201477 61.8069125332653 52.9991590137968
endloop
endfacet
facet normal 1.0 0.0 0.0
outer loop
vertex 111.546181201477 63.6176274541157 72.9170231431508
vertex 111.546181201477 63.3007523429669 52.863355394733
vertex 111.546181201477 65.1114672638172 72.781219524087
endloop
endfacet
facet normal 1.0 -5.10615538624742e-016 -5.61677092487216e-015
outer loop
vertex 107.046181201477 66.1772997054021 12.7105297698024
vertex 107.046181201477 58.5722970378305 17.4183885640134
vertex 107.046181201477 58.2101540536604 13.4348157381426
endloop
endfacet
facet normal 1.0 -5.10615538624742e-016 -5.61677092487216e-015
outer loop
vertex 107.046181201477 58.5722970378305 17.4183885640134
vertex 107.046181201477 66.1772997054021 12.7105297698024
vertex 107.046181201477 66.5394426895721 16.6941025956732
endloop
endfacet
facet normal 0.0 -0.0905357460425186 -0.995893206467704
outer loop
vertex 111.046181201477 66.5394426895721 16.6941025956732
vertex 107.046181201477 58.5722970378305 17.4183885640134
vertex 107.046181201477 66.5394426895721 16.6941025956732
endloop
endfacet
facet normal 0.0 -0.0905357460425186 -0.995893206467704
outer loop
vertex 107.046181201477 58.5722970378305 17.4183885640134
vertex 111.046181201477 66.5394426895721 16.6941025956732
vertex 111.046181201477 58.5722970378305 17.4183885640134
endloop
endfacet
facet normal 0.0 0.0905357460425186 0.995893206467704
outer loop
vertex 107.046181201477 53.8644382436196 9.81338589644182
vertex 103.046181201477 65.815156721232 8.72695694393161
vertex 103.046181201477 53.8644382436196 9.81338589644182
endloop
endfacet
facet normal 0.0 0.0905357460425186 0.995893206467704
outer loop
vertex 103.046181201477 65.815156721232 8.72695694393161
vertex 107.046181201477 53.8644382436196 9.81338589644182
vertex 107.046181201477 65.815156721232 8.72695694393161
endloop
endfacet
facet normal 2.86300237107669e-034 0.0905357460425186 0.995893206467704
outer loop
vertex 193.046181201477 65.428342374966 4.47199913500672
vertex 103.046181201477 81.8362587020397 2.98037037800001
vertex 103.046181201477 65.428342374966 4.47199913500672
endloop
endfacet
facet normal 2.86300237107669e-034 0.0905357460425186 0.995893206467704
outer loop
vertex 103.046181201477 81.8362587020397 2.98037037800001
vertex 193.046181201477 65.428342374966 4.47199913500672
vertex 193.046181201477 81.8362587020397 2.98037037800001
endloop
endfacet
facet normal 0.0 0.0905357460425186 0.995893206467704
outer loop
vertex 111.046181201477 53.6833667515346 7.82159948350642
vertex 107.046181201477 65.6340852291469 6.7351705309962
vertex 107.046181201477 53.6833667515346 7.82159948350642
endloop
endfacet
facet normal 0.0 0.0905357460425186 0.995893206467704
outer loop
vertex 107.046181201477 65.6340852291469 6.7351705309962
vertex 111.046181201477 53.6833667515346 7.82159948350642
vertex 111.046181201477 65.6340852291469 6.7351705309962
endloop
endfacet
facet normal 1.0 0.0 0.0
outer loop
vertex 107.046181201477 65.6340852291469 6.7351705309962
vertex 107.046181201477 53.8644382436196 9.81338589644182
vertex 107.046181201477 53.6833667515346 7.82159948350642
endloop
endfacet
facet normal 1.0 0.0 0.0
outer loop
vertex 107.046181201477 53.8644382436196 9.81338589644182
vertex 107.046181201477 65.6340852291469 6.7351705309962
vertex 107.046181201477 65.815156721232 8.72695694393161
endloop
endfacet
facet normal -1.0 9.45402747754492e-016 -1.16409512903027e-015
outer loop
vertex 111.046181201477 59.1031758330376 23.2580553112926
vertex 111.046181201477 58.5722970378305 17.4183885640134
vertex 111.046181201477 55.1196030071669 23.6201982954627
endloop
endfacet
facet normal -1.0 9.45402747754492e-016 -1.16409512903027e-015
outer loop
vertex 111.046181201477 53.6833667515346 7.82159948350642
vertex 111.046181201477 58.5722970378305 17.4183885640134
vertex 111.046181201477 65.6340852291469 6.7351705309962
endloop
endfacet
facet normal -1.0 9.45402747754492e-016 -1.16409512903027e-015
outer loop
vertex 111.046181201477 58.5722970378305 17.4183885640134
vertex 111.046181201477 53.6833667515346 7.82159948350642
vertex 111.046181201477 55.1196030071669 23.6201982954627
endloop
endfacet
facet normal -1.0 9.45402747754492e-016 -1.16409512903027e-015
outer loop
vertex 111.046181201477 65.6340852291469 6.7351705309962
vertex 111.046181201477 58.5722970378305 17.4183885640134
vertex 111.046181201477 66.5394426895721 16.6941025956732
endloop
endfacet
facet normal 0.0 -0.0905357460425186 -0.995893206467704
outer loop
vertex 111.046181201477 59.1031758330376 23.2580553112926
vertex 103.046181201477 55.1196030071669 23.6201982954627
vertex 103.046181201477 59.1031758330376 23.2580553112926
endloop
endfacet
facet normal 0.0 -0.0905357460425186 -0.995893206467704
outer loop
vertex 103.046181201477 55.1196030071669 23.6201982954627
vertex 111.046181201477 59.1031758330376 23.2580553112926
vertex 111.046181201477 55.1196030071669 23.6201982954627
endloop
endfacet
facet normal 0.0 -0.995893206467704 0.0905357460425186
outer loop
vertex 111.046181201477 59.1031758330376 23.2580553112926
vertex 107.046181201477 58.5722970378305 17.4183885640134
vertex 111.046181201477 58.5722970378305 17.4183885640134
endloop
endfacet
facet normal 0.0 -0.995893206467704 0.0905357460425186
outer loop
vertex 107.046181201477 58.5722970378305 17.4183885640134
vertex 103.046181201477 58.2101540536604 13.4348157381426
vertex 107.046181201477 58.2101540536604 13.4348157381426
endloop
endfacet
facet normal 0.0 -0.995893206467704 0.0905357460425186
outer loop
vertex 103.046181201477 58.2101540536604 13.4348157381426
vertex 107.046181201477 58.5722970378305 17.4183885640134
vertex 103.046181201477 59.1031758330376 23.2580553112926
endloop
endfacet
facet normal 0.0 -0.995893206467704 0.0905357460425186
outer loop
vertex 103.046181201477 59.1031758330376 23.2580553112926
vertex 107.046181201477 58.5722970378305 17.4183885640134
vertex 111.046181201477 59.1031758330376 23.2580553112926
endloop
endfacet
facet normal -2.53326747992334e-030 0.995893206467704 -0.0905357460425166
outer loop
vertex 103.046181201477 55.1196030071669 23.6201982954627
vertex 107.046181201477 53.8644382436196 9.81338589644182
vertex 103.046181201477 53.8644382436196 9.81338589644182
endloop
endfacet
facet normal -2.53326747992334e-030 0.995893206467704 -0.0905357460425166
outer loop
vertex 107.046181201477 53.8644382436196 9.81338589644182
vertex 111.046181201477 53.6833667515346 7.82159948350642
vertex 107.046181201477 53.6833667515346 7.82159948350642
endloop
endfacet
facet normal -2.53326747992334e-030 0.995893206467704 -0.0905357460425166
outer loop
vertex 111.046181201477 53.6833667515346 7.82159948350642
vertex 107.046181201477 53.8644382436196 9.81338589644182
vertex 111.046181201477 55.1196030071669 23.6201982954627
endloop
endfacet
facet normal -2.53326747992334e-030 0.995893206467704 -0.0905357460425166
outer loop
vertex 111.046181201477 55.1196030071669 23.6201982954627
vertex 107.046181201477 53.8644382436196 9.81338589644182
vertex 103.046181201477 55.1196030071669 23.6201982954627
endloop
endfacet
facet normal 0.0 -0.0905357460425186 -0.995893206467704
outer loop
vertex 107.046181201477 66.1772997054021 12.7105297698024
vertex 103.046181201477 58.2101540536604 13.4348157381426
vertex 103.046181201477 66.1772997054021 12.7105297698024
endloop
endfacet
facet normal 0.0 -0.0905357460425186 -0.995893206467704
outer loop
vertex 103.046181201477 58.2101540536604 13.4348157381426
vertex 107.046181201477 66.1772997054021 12.7105297698024
vertex 107.046181201477 58.2101540536604 13.4348157381426
endloop
endfacet
facet normal -1.0 5.9756444437778e-016 -1.15879742841848e-015
outer loop
vertex 103.046181201477 65.815156721232 8.72695694393161
vertex 103.046181201477 65.428342374966 4.47199913500672
vertex 103.046181201477 53.8644382436196 9.81338589644182
endloop
endfacet
facet normal -1.0 5.9756444437778e-016 -1.15879742841848e-015
outer loop
vertex 103.046181201477 37.3787927284724 -1.17842964756833
vertex 103.046181201477 84.8935277741076 -2.31818181818218
vertex 103.046181201477 37.1976506544354 -2.31818181818218
endloop
endfacet
facet normal -1.0 5.9756444437778e-016 -1.15879742841848e-015
outer loop
vertex 103.046181201477 84.8935277741076 -2.31818181818218
vertex 103.046181201477 37.3787927284724 -1.17842964756833
vertex 103.046181201477 37.671841047193 -0.0621993199475131
endloop
endfacet
facet normal -1.0 5.9756444437778e-016 -1.15879742841848e-015
outer loop
vertex 103.046181201477 84.8935277741076 -2.31818181818218
vertex 103.046181201477 37.671841047193 -0.0621993199475131
vertex 103.046181201477 38.0739184168068 1.01954984240479
endloop
endfacet
facet normal -1.0 5.9756444437778e-016 -1.15879742841848e-015
outer loop
vertex 103.046181201477 84.8935277741076 -2.31818181818218
vertex 103.046181201477 38.0739184168068 1.01954984240479
vertex 103.046181201477 38.5810771794118 2.05619705863529
endloop
endfacet
facet normal -1.0 5.9756444437778e-016 -1.15879742841848e-015
outer loop
vertex 103.046181201477 84.8935277741076 -2.31818181818218
vertex 103.046181201477 38.5810771794118 2.05619705863529
vertex 103.046181201477 39.188337971711 3.0375643657846
endloop
endfacet
facet normal -1.0 5.9756444437778e-016 -1.15879742841848e-015
outer loop
vertex 103.046181201477 84.8935277741076 -2.31818181818218
vertex 103.046181201477 39.188337971711 3.0375643657846
vertex 103.046181201477 39.8897386131731 3.95401654760431
endloop
endfacet
facet normal -1.0 5.9756444437778e-016 -1.15879742841848e-015
outer loop
vertex 103.046181201477 84.8935277741076 -2.31818181818218
vertex 103.046181201477 39.8897386131731 3.95401654760431
vertex 103.046181201477 40.6783926436437 4.79655573460266
endloop
endfacet
facet normal -1.0 5.9756444437778e-016 -1.15879742841848e-015
outer loop
vertex 103.046181201477 84.8935277741076 -2.31818181818218
vertex 103.046181201477 40.6783926436437 4.79655573460266
vertex 103.046181201477 41.5465569356788 5.55690974652124
endloop
endfacet
facet normal -1.0 5.9756444437778e-016 -1.15879742841848e-015
outer loop
vertex 103.046181201477 84.8935277741076 -2.31818181818218
vertex 103.046181201477 41.5465569356788 5.55690974652124
vertex 103.046181201477 42.4857077177689 6.22761330988206
endloop
endfacet
facet normal -1.0 5.9756444437778e-016 -1.15879742841848e-015
outer loop
vertex 103.046181201477 84.8935277741076 -2.31818181818218
vertex 103.046181201477 42.4857077177689 6.22761330988206
vertex 103.046181201477 43.4866242620487 6.80208135319916
endloop
endfacet
facet normal -1.0 5.9756444437778e-016 -1.15879742841848e-015
outer loop
vertex 103.046181201477 84.8935277741076 -2.31818181818218
vertex 103.046181201477 43.4866242620487 6.80208135319916
vertex 103.046181201477 44.5394794148309 7.27467366023051
endloop
endfacet
facet normal -1.0 5.9756444437778e-016 -1.15879742841848e-015
outer loop
vertex 103.046181201477 84.8935277741076 -2.31818181818218
vertex 103.046181201477 44.5394794148309 7.27467366023051
vertex 103.046181201477 45.6339360811245 7.64075024649487
endloop
endfacet
facet normal -1.0 5.9756444437778e-016 -1.15879742841848e-015
outer loop
vertex 103.046181201477 84.8935277741076 -2.31818181818218
vertex 103.046181201477 45.6339360811245 7.64075024649487
vertex 103.046181201477 65.428342374966 4.47199913500672
endloop
endfacet
facet normal -1.0 5.9756444437778e-016 -1.15879742841848e-015
outer loop
vertex 103.046181201477 65.428342374966 4.47199913500672
vertex 103.046181201477 45.6339360811245 7.64075024649487
vertex 103.046181201477 53.8644382436196 9.81338589644182
endloop
endfacet
facet normal -1.0 5.9756444437778e-016 -1.15879742841848e-015
outer loop
vertex 103.046181201477 53.8644382436196 9.81338589644182
vertex 103.046181201477 45.6339360811245 7.64075024649487
vertex 103.046181201477 51.6669089765033 74.003452095661
endloop
endfacet
facet normal -1.0 5.9756444437778e-016 -1.15879742841848e-015
outer loop
vertex 103.046181201477 84.8935277741076 -2.31818181818218
vertex 103.046181201477 65.428342374966 4.47199913500672
vertex 103.046181201477 81.8362587020397 2.98037037800001
endloop
endfacet
facet normal -1.0 5.9756444437778e-016 -1.15879742841848e-015
outer loop
vertex 103.046181201477 84.8935277741076 -2.31818181818218
vertex 103.046181201477 81.8362587020397 2.98037037800001
vertex 103.046181201477 82.3028290367751 2.71148370153986
endloop
endfacet
facet normal -1.0 5.9756444437778e-016 -1.15879742841848e-015
outer loop
vertex 103.046181201477 84.8935277741076 -2.31818181818218
vertex 103.046181201477 82.3028290367751 2.71148370153986
vertex 103.046181201477 82.7416680164702 2.39938071864329
endloop
endfacet
facet normal -1.0 5.9756444437778e-016 -1.15879742841848e-015
outer loop
vertex 103.046181201477 84.8935277741076 -2.31818181818218
vertex 103.046181201477 82.7416680164702 2.39938071864329
vertex 103.046181201477 83.1487855551876 2.04689918479861
endloop
endfacet
facet normal -1.0 5.9756444437778e-016 -1.15879742841848e-015
outer loop
vertex 103.046181201477 84.8935277741076 -2.31818181818218
vertex 103.046181201477 83.1487855551876 2.04689918479861
vertex 103.046181201477 83.5204799900365 1.65724399217932
endloop
endfacet
facet normal -1.0 5.9756444437778e-016 -1.15879742841848e-015
outer loop
vertex 103.046181201477 84.8935277741076 -2.31818181818218
vertex 103.046181201477 83.5204799900365 1.65724399217932
vertex 103.046181201477 83.8533717380578 1.23395802958176
endloop
endfacet
facet normal -1.0 5.9756444437778e-016 -1.15879742841848e-015
outer loop
vertex 103.046181201477 84.8935277741076 -2.31818181818218
vertex 103.046181201477 83.8533717380578 1.23395802958176
vertex 103.046181201477 84.1444340246394 0.780889969172882
endloop
endfacet
facet normal -1.0 5.9756444437778e-016 -1.15879742841848e-015
outer loop
vertex 103.046181201477 84.8935277741076 -2.31818181818218
vertex 103.046181201477 84.1444340246394 0.780889969172882
vertex 103.046181201477 84.3910204040681 0.302159272942705
endloop
endfacet
facet normal -1.0 5.9756444437778e-016 -1.15879742841848e-015
outer loop
vertex 103.046181201477 84.8935277741076 -2.31818181818218
vertex 103.046181201477 84.3910204040681 0.302159272942705
vertex 103.046181201477 84.5908888219904 -0.197881262964207
endloop
endfacet
facet normal -1.0 5.9756444437778e-016 -1.15879742841848e-015
outer loop
vertex 103.046181201477 84.8935277741076 -2.31818181818218
vertex 103.046181201477 84.5908888219904 -0.197881262964207
vertex 103.046181201477 84.7422220009977 -0.714685085477481
endloop
endfacet
facet normal -1.0 5.9756444437778e-016 -1.15879742841848e-015
outer loop
vertex 103.046181201477 84.8935277741076 -2.31818181818218
vertex 103.046181201477 84.7422220009977 -0.714685085477481
vertex 103.046181201477 84.8436439639838 -1.24355322353918
endloop
endfacet
facet normal -1.0 5.9756444437778e-016 -1.15879742841848e-015
outer loop
vertex 103.046181201477 84.8935277741076 -2.31818181818218
vertex 103.046181201477 84.8436439639838 -1.24355322353918
vertex 103.046181201477 84.8942325450359 -1.7796770128826
endloop
endfacet
facet normal -1.0 5.9756444437778e-016 -1.15879742841848e-015
outer loop
vertex 103.046181201477 51.6669089765033 74.003452095661
vertex 103.046181201477 54.5187849768426 33.5792414876764
vertex 103.046181201477 53.8644382436196 9.81338589644182
endloop
endfacet
facet normal -1.0 5.9756444437778e-016 -1.15879742841848e-015
outer loop
vertex 103.046181201477 54.5187849768426 33.5792414876764
vertex 103.046181201477 51.6669089765033 74.003452095661
vertex 103.046181201477 56.329499897693 53.4971056170306
endloop
endfacet
facet normal -1.0 5.9756444437778e-016 -1.15879742841848e-015
outer loop
vertex 103.046181201477 56.329499897693 53.4971056170306
vertex 103.046181201477 51.6669089765033 74.003452095661
vertex 103.046181201477 59.634054628245 73.2791661273209
endloop
endfacet
facet normal -1.0 5.9756444437778e-016 -1.15879742841848e-015
outer loop
vertex 103.046181201477 56.329499897693 53.4971056170306
vertex 103.046181201477 59.634054628245 73.2791661273209
vertex 103.046181201477 57.8233397073946 53.3613019979669
endloop
endfacet
facet normal -1.0 5.9756444437778e-016 -1.15879742841848e-015
outer loop
vertex 103.046181201477 54.5187849768426 33.5792414876764
vertex 103.046181201477 55.1196030071669 23.6201982954627
vertex 103.046181201477 53.8644382436196 9.81338589644182
endloop
endfacet
facet normal -1.0 5.9756444437778e-016 -1.15879742841848e-015
outer loop
vertex 103.046181201477 55.1196030071669 23.6201982954627
vertex 103.046181201477 54.5187849768426 33.5792414876764
vertex 103.046181201477 61.4900374221166 32.9454912653787
endloop
endfacet
facet normal -1.0 5.9756444437778e-016 -1.15879742841848e-015
outer loop
vertex 103.046181201477 55.1196030071669 23.6201982954627
vertex 103.046181201477 61.4900374221166 32.9454912653787
vertex 103.046181201477 59.1031758330376 23.2580553112926
endloop
endfacet
facet normal -1.0 5.9756444437778e-016 -1.15879742841848e-015
outer loop
vertex 103.046181201477 63.6176274541157 72.9170231431508
vertex 103.046181201477 63.3007523429669 52.863355394733
vertex 103.046181201477 61.8069125332653 52.9991590137968
endloop
endfacet
facet normal -1.0 5.9756444437778e-016 -1.15879742841848e-015
outer loop
vertex 103.046181201477 59.1031758330376 23.2580553112926
vertex 103.046181201477 66.1772997054021 12.7105297698024
vertex 103.046181201477 58.2101540536604 13.4348157381426
endloop
endfacet
facet normal -1.0 5.9756444437778e-016 -1.15879742841848e-015
outer loop
vertex 103.046181201477 66.1772997054021 12.7105297698024
vertex 103.046181201477 59.1031758330376 23.2580553112926
vertex 103.046181201477 61.4900374221166 32.9454912653787
endloop
endfacet
facet normal -1.0 5.9756444437778e-016 -1.15879742841848e-015
outer loop
vertex 103.046181201477 66.1772997054021 12.7105297698024
vertex 103.046181201477 61.4900374221166 32.9454912653787
vertex 103.046181201477 63.3007523429669 52.863355394733
endloop
endfacet
facet normal -1.0 5.9756444437778e-016 -1.15879742841848e-015
outer loop
vertex 103.046181201477 66.1772997054021 12.7105297698024
vertex 103.046181201477 63.3007523429669 52.863355394733
vertex 103.046181201477 63.6176274541157 72.9170231431508
endloop
endfacet
facet normal -1.0 5.9756444437778e-016 -1.15879742841848e-015
outer loop
vertex 103.046181201477 66.1772997054021 12.7105297698024
vertex 103.046181201477 63.6176274541157 72.9170231431508
vertex 103.046181201477 71.5847731058573 72.1927371748107
endloop
endfacet
facet normal 0.0 0.0905357460425186 0.995893206467704
outer loop
vertex 122.546181201477 56.4200356437355 54.4929988234983
vertex 117.546181201477 63.3912880890095 53.8592486012007
vertex 117.546181201477 56.4200356437355 54.4929988234983
endloop
endfacet
facet normal 0.0 0.0905357460425186 0.995893206467704
outer loop
vertex 117.546181201477 63.3912880890095 53.8592486012007
vertex 122.546181201477 56.4200356437355 54.4929988234983
vertex 122.546181201477 63.3912880890095 53.8592486012007
endloop
endfacet
facet normal 1.0 0.0 0.0
outer loop
vertex 193.046181201477 84.8935277741076 -2.31818181818218
vertex 193.046181201477 37.3787927284724 -1.17842964756833
vertex 193.046181201477 37.1976506544354 -2.31818181818218
endloop
endfacet
facet normal 1.0 0.0 0.0
outer loop
vertex 193.046181201477 37.3787927284724 -1.17842964756833
vertex 193.046181201477 84.8935277741076 -2.31818181818218
vertex 193.046181201477 37.671841047193 -0.0621993199475131
endloop
endfacet
facet normal 1.0 0.0 0.0
outer loop
vertex 193.046181201477 37.671841047193 -0.0621993199475131
vertex 193.046181201477 84.8935277741076 -2.31818181818218
vertex 193.046181201477 38.0739184168068 1.01954984240479
endloop
endfacet
facet normal 1.0 0.0 0.0
outer loop
vertex 193.046181201477 38.0739184168068 1.01954984240479
vertex 193.046181201477 84.8935277741076 -2.31818181818218
vertex 193.046181201477 38.5810771794118 2.05619705863529
endloop
endfacet
facet normal 1.0 0.0 0.0
outer loop
vertex 193.046181201477 38.5810771794118 2.05619705863529
vertex 193.046181201477 84.8935277741076 -2.31818181818218
vertex 193.046181201477 39.188337971711 3.0375643657846
endloop
endfacet
facet normal 1.0 0.0 0.0
outer loop
vertex 193.046181201477 39.188337971711 3.0375643657846
vertex 193.046181201477 84.8935277741076 -2.31818181818218
vertex 193.046181201477 39.8897386131731 3.95401654760431
endloop
endfacet
facet normal 1.0 0.0 0.0
outer loop
vertex 193.046181201477 39.8897386131731 3.95401654760431
vertex 193.046181201477 84.8935277741076 -2.31818181818218
vertex 193.046181201477 40.6783926436437 4.79655573460266
endloop
endfacet
facet normal 1.0 0.0 0.0
outer loop
vertex 193.046181201477 40.6783926436437 4.79655573460266
vertex 193.046181201477 84.8935277741076 -2.31818181818218
vertex 193.046181201477 41.5465569356788 5.55690974652124
endloop
endfacet
facet normal 1.0 0.0 0.0
outer loop
vertex 193.046181201477 41.5465569356788 5.55690974652124
vertex 193.046181201477 84.8935277741076 -2.31818181818218
vertex 193.046181201477 42.4857077177689 6.22761330988206
endloop
endfacet
facet normal 1.0 0.0 0.0
outer loop
vertex 193.046181201477 42.4857077177689 6.22761330988206
vertex 193.046181201477 84.8935277741076 -2.31818181818218
vertex 193.046181201477 43.4866242620487 6.80208135319916
endloop
endfacet
facet normal 1.0 0.0 0.0
outer loop
vertex 193.046181201477 43.4866242620487 6.80208135319916
vertex 193.046181201477 84.8935277741076 -2.31818181818218
vertex 193.046181201477 44.5394794148309 7.27467366023051
endloop
endfacet
facet normal 1.0 0.0 0.0
outer loop
vertex 193.046181201477 44.5394794148309 7.27467366023051
vertex 193.046181201477 84.8935277741076 -2.31818181818218
vertex 193.046181201477 45.6339360811245 7.64075024649487
endloop
endfacet
facet normal 1.0 0.0 0.0
outer loop
vertex 193.046181201477 45.6339360811245 7.64075024649487
vertex 193.046181201477 84.8935277741076 -2.31818181818218
vertex 193.046181201477 65.428342374966 4.47199913500672
endloop
endfacet
facet normal 1.0 0.0 0.0
outer loop
vertex 193.046181201477 45.6339360811245 7.64075024649487
vertex 193.046181201477 65.428342374966 4.47199913500672
vertex 193.046181201477 51.2142302462907 69.0239860633225
endloop
endfacet
facet normal 1.0 0.0 0.0
outer loop
vertex 193.046181201477 65.428342374966 4.47199913500672
vertex 193.046181201477 84.8935277741076 -2.31818181818218
vertex 193.046181201477 81.8362587020397 2.98037037800001
endloop
endfacet
facet normal 1.0 0.0 0.0
outer loop
vertex 193.046181201477 81.8362587020397 2.98037037800001
vertex 193.046181201477 84.8935277741076 -2.31818181818218
vertex 193.046181201477 82.3028290367751 2.71148370153986
endloop
endfacet
facet normal 1.0 0.0 0.0
outer loop
vertex 193.046181201477 82.3028290367751 2.71148370153986
vertex 193.046181201477 84.8935277741076 -2.31818181818218
vertex 193.046181201477 82.7416680164702 2.39938071864329
endloop
endfacet
facet normal 1.0 0.0 0.0
outer loop
vertex 193.046181201477 82.7416680164702 2.39938071864329
vertex 193.046181201477 84.8935277741076 -2.31818181818218
vertex 193.046181201477 83.1487855551876 2.04689918479861
endloop
endfacet
facet normal 1.0 0.0 0.0
outer loop
vertex 193.046181201477 83.1487855551876 2.04689918479861
vertex 193.046181201477 84.8935277741076 -2.31818181818218
vertex 193.046181201477 83.5204799900365 1.65724399217932
endloop
endfacet
facet normal 1.0 0.0 0.0
outer loop
vertex 193.046181201477 83.5204799900365 1.65724399217932
vertex 193.046181201477 84.8935277741076 -2.31818181818218
vertex 193.046181201477 83.8533717380578 1.23395802958176
endloop
endfacet
facet normal 1.0 0.0 0.0
outer loop
vertex 193.046181201477 83.8533717380578 1.23395802958176
vertex 193.046181201477 84.8935277741076 -2.31818181818218
vertex 193.046181201477 84.1444340246394 0.780889969172882
endloop
endfacet
facet normal 1.0 0.0 0.0
outer loop
vertex 193.046181201477 84.1444340246394 0.780889969172882
vertex 193.046181201477 84.8935277741076 -2.31818181818218
vertex 193.046181201477 84.3910204040681 0.302159272942705
endloop
endfacet
facet normal 1.0 0.0 0.0
outer loop
vertex 193.046181201477 84.3910204040681 0.302159272942705
vertex 193.046181201477 84.8935277741076 -2.31818181818218
vertex 193.046181201477 84.5908888219904 -0.197881262964207
endloop
endfacet
facet normal 1.0 0.0 0.0
outer loop
vertex 193.046181201477 84.5908888219904 -0.197881262964207
vertex 193.046181201477 84.8935277741076 -2.31818181818218
vertex 193.046181201477 84.7422220009977 -0.714685085477481
endloop
endfacet
facet normal 1.0 0.0 0.0
outer loop
vertex 193.046181201477 84.7422220009977 -0.714685085477481
vertex 193.046181201477 84.8935277741076 -2.31818181818218
vertex 193.046181201477 84.8436439639838 -1.24355322353918
endloop
endfacet
facet normal 1.0 0.0 0.0
outer loop
vertex 193.046181201477 84.8436439639838 -1.24355322353918
vertex 193.046181201477 84.8935277741076 -2.31818181818218
vertex 193.046181201477 84.8942325450359 -1.7796770128826
endloop
endfacet
facet normal 1.0 0.0 0.0
outer loop
vertex 193.046181201477 71.1320943756447 67.2132711424722
vertex 193.046181201477 51.2142302462907 69.0239860633225
vertex 193.046181201477 65.428342374966 4.47199913500672
endloop
endfacet
facet normal 2.20540570915549e-017 -1.91828316160771e-017 -1.0
outer loop
vertex 103.046181201477 84.8935277741076 -2.31818181818218
vertex 193.046181201477 37.1976506544354 -2.31818181818218
vertex 103.046181201477 37.1976506544354 -2.31818181818218
endloop
endfacet
facet normal 2.20540570915549e-017 -1.91828316160771e-017 -1.0
outer loop
vertex 193.046181201477 37.1976506544354 -2.31818181818218
vertex 103.046181201477 84.8935277741076 -2.31818181818218
vertex 193.046181201477 84.8935277741076 -2.31818181818218
endloop
endfacet
endsolid xperiaZ1CompactHolder4
