solid HOTAS_Throttle
facet normal -5.886427099904284e-16 1.0 4.74690432990423e-31
  outer loop
    vertex 130.82500000000002 85.27500000000008 5.649999999999995
    vertex 54.175 85.27500000000003 2.4999999999999956
    vertex 54.175 85.27500000000003 5.6499999999999915
  endloop
endfacet
facet normal -5.886427099904284e-16 1.0 4.74690432990423e-31
  outer loop
    vertex 54.175 85.27500000000003 2.4999999999999956
    vertex 130.82500000000002 85.27500000000008 5.649999999999995
    vertex 130.82500000000002 85.27500000000008 2.4999999999999956
  endloop
endfacet
facet normal 0.0 0.0 1.0
  outer loop
    vertex 49.17499999999997 119.72500000000002 5.649999999999995
    vertex 54.174999999999976 130.27500000000003 5.649999999999995
    vertex 49.17499999999996 130.27500000000003 5.649999999999995
  endloop
endfacet
facet normal 0.0 0.0 1.0
  outer loop
    vertex 54.174999999999976 130.27500000000003 5.649999999999995
    vertex 49.17499999999997 119.72500000000002 5.649999999999995
    vertex 130.825 130.2750000000001 5.649999999999995
  endloop
endfacet
facet normal 0.0 0.0 1.0
  outer loop
    vertex 130.825 130.2750000000001 5.649999999999995
    vertex 49.17499999999997 119.72500000000002 5.649999999999995
    vertex 135.82500000000002 130.2750000000001 5.649999999999995
  endloop
endfacet
facet normal 0.0 0.0 1.0
  outer loop
    vertex 135.82500000000002 130.2750000000001 5.649999999999995
    vertex 49.17499999999997 119.72500000000002 5.649999999999995
    vertex 130.825 119.7250000000001 5.649999999999995
  endloop
endfacet
facet normal 0.0 0.0 1.0
  outer loop
    vertex 130.825 119.7250000000001 5.649999999999995
    vertex 49.17499999999997 119.72500000000002 5.649999999999995
    vertex 54.174999999999976 119.72500000000002 5.649999999999995
  endloop
endfacet
facet normal 0.0 0.0 1.0
  outer loop
    vertex 135.82500000000002 119.7250000000001 5.649999999999995
    vertex 135.82500000000002 130.2750000000001 5.649999999999995
    vertex 130.825 119.7250000000001 5.649999999999995
  endloop
endfacet
facet normal 8.829640649856426e-16 -1.0 0.0
  outer loop
    vertex 130.825 119.7250000000001 2.4999999999999956
    vertex 54.174999999999976 119.72500000000002 5.649999999999995
    vertex 54.174999999999976 119.72500000000002 2.4999999999999956
  endloop
endfacet
facet normal 8.829640649856426e-16 -1.0 0.0
  outer loop
    vertex 54.174999999999976 119.72500000000002 5.649999999999995
    vertex 130.825 119.7250000000001 2.4999999999999956
    vertex 130.825 119.7250000000001 5.649999999999995
  endloop
endfacet
facet normal -5.886427099904285e-16 1.0 0.0
  outer loop
    vertex 130.825 130.2750000000001 5.649999999999995
    vertex 54.174999999999976 130.27500000000003 3.499999999999995
    vertex 54.174999999999976 130.27500000000003 5.649999999999995
  endloop
endfacet
facet normal -5.886427099904285e-16 1.0 0.0
  outer loop
    vertex 54.174999999999976 130.27500000000003 3.499999999999995
    vertex 130.825 130.2750000000001 5.649999999999995
    vertex 130.825 130.2750000000001 3.499999999999995
  endloop
endfacet
facet normal 0.0 0.0 1.0
  outer loop
    vertex 54.175 135.27500000000003 3.499999999999995
    vertex 130.825 130.2750000000001 3.499999999999995
    vertex 130.825 135.2750000000001 3.499999999999995
  endloop
endfacet
facet normal 0.0 0.0 1.0
  outer loop
    vertex 130.825 130.2750000000001 3.499999999999995
    vertex 54.175 135.27500000000003 3.499999999999995
    vertex 54.174999999999976 130.27500000000003 3.499999999999995
  endloop
endfacet
facet normal -8.04167043717162e-16 1.0 1.3217585208934716e-16
  outer loop
    vertex 138.32499999999996 135.2750000000001 8.149999999999984
    vertex 130.825 135.2750000000001 3.499999999999995
    vertex 130.825 135.2750000000001 8.149999999999984
  endloop
endfacet
facet normal -8.04167043717162e-16 1.0 1.3217585208934716e-16
  outer loop
    vertex 54.175 135.27500000000003 8.149999999999979
    vertex 46.67499999999997 135.27500000000003 2.4999999999999956
    vertex 46.67499999999997 135.27500000000003 8.149999999999979
  endloop
endfacet
facet normal -8.04167043717162e-16 1.0 1.3217585208934716e-16
  outer loop
    vertex 46.67499999999997 135.27500000000003 2.4999999999999956
    vertex 54.175 135.27500000000003 8.149999999999979
    vertex 54.175 135.27500000000003 3.499999999999995
  endloop
endfacet
facet normal -8.04167043717162e-16 1.0 1.3217585208934716e-16
  outer loop
    vertex 46.67499999999997 135.27500000000003 2.4999999999999956
    vertex 54.175 135.27500000000003 3.499999999999995
    vertex 138.32499999999996 135.2750000000001 2.4999999999999956
  endloop
endfacet
facet normal -8.04167043717162e-16 1.0 1.3217585208934716e-16
  outer loop
    vertex 138.32499999999996 135.2750000000001 2.4999999999999956
    vertex 54.175 135.27500000000003 3.499999999999995
    vertex 130.825 135.2750000000001 3.499999999999995
  endloop
endfacet
facet normal -8.04167043717162e-16 1.0 1.3217585208934716e-16
  outer loop
    vertex 138.32499999999996 135.2750000000001 2.4999999999999956
    vertex 130.825 135.2750000000001 3.499999999999995
    vertex 138.32499999999996 135.2750000000001 8.149999999999984
  endloop
endfacet
facet normal 1.0 7.221846401251757e-16 -9.92083173119805e-31
  outer loop
    vertex 54.174999999999976 119.72500000000002 2.4999999999999956
    vertex 54.174999999999976 114.7250000000001 3.499999999999995
    vertex 54.175 85.27500000000003 2.4999999999999956
  endloop
endfacet
facet normal 1.0 7.221846401251757e-16 -9.92083173119805e-31
  outer loop
    vertex 54.174999999999976 114.7250000000001 3.499999999999995
    vertex 54.174999999999976 119.72500000000002 2.4999999999999956
    vertex 54.174999999999976 119.72500000000002 5.649999999999995
  endloop
endfacet
facet normal 1.0 7.221846401251757e-16 -9.92083173119805e-31
  outer loop
    vertex 54.174999999999976 114.7250000000001 3.499999999999995
    vertex 54.174999999999976 119.72500000000002 5.649999999999995
    vertex 54.174999999999976 114.7250000000001 8.149999999999979
  endloop
endfacet
facet normal 1.0 7.221846401251757e-16 -9.92083173119805e-31
  outer loop
    vertex 54.174999999999976 114.7250000000001 8.149999999999979
    vertex 54.174999999999976 119.72500000000002 5.649999999999995
    vertex 54.174999999999976 119.72500000000002 8.149999999999979
  endloop
endfacet
facet normal 1.0 7.221846401251757e-16 -9.92083173119805e-31
  outer loop
    vertex 54.175 85.27500000000003 2.4999999999999956
    vertex 54.175 90.27500000000005 3.499999999999995
    vertex 54.175 85.27500000000003 5.6499999999999915
  endloop
endfacet
facet normal 1.0 7.221846401251757e-16 -9.92083173119805e-31
  outer loop
    vertex 54.175 90.27500000000005 3.499999999999995
    vertex 54.175 85.27500000000003 2.4999999999999956
    vertex 54.174999999999976 114.7250000000001 3.499999999999995
  endloop
endfacet
facet normal 1.0 7.221846401251757e-16 -9.92083173119805e-31
  outer loop
    vertex 54.175 85.27500000000003 5.6499999999999915
    vertex 54.175 90.27500000000005 3.499999999999995
    vertex 54.175 90.27500000000005 8.149999999999988
  endloop
endfacet
facet normal 1.0 7.221846401251757e-16 -9.92083173119805e-31
  outer loop
    vertex 54.175 85.27500000000003 5.6499999999999915
    vertex 54.175 90.27500000000005 8.149999999999988
    vertex 54.175 85.27500000000003 8.149999999999988
  endloop
endfacet
facet normal -0.7071067811865468 0.7071067811865483 1.416893655579858e-17
  outer loop
    vertex 46.67499999999997 135.27500000000003 8.149999999999979
    vertex 44.17499999999996 132.77500000000003 2.4999999999999956
    vertex 44.17499999999996 132.77500000000003 8.149999999999979
  endloop
endfacet
facet normal -0.7071067811865468 0.7071067811865483 1.416893655579858e-17
  outer loop
    vertex 44.17499999999996 132.77500000000003 2.4999999999999956
    vertex 46.67499999999997 135.27500000000003 8.149999999999979
    vertex 46.67499999999997 135.27500000000003 2.4999999999999956
  endloop
endfacet
facet normal -1.0 -6.743194511572521e-16 -3.6613948935639966e-33
  outer loop
    vertex 44.17500000000001 69.72500000000004 8.149999999999986
    vertex 44.17499999999999 90.27500000000003 3.499999999999995
    vertex 44.17500000000001 69.72500000000004 3.499999999999994
  endloop
endfacet
facet normal -1.0 -6.743194511572521e-16 -3.6613948935639966e-33
  outer loop
    vertex 44.17499999999999 90.27500000000003 3.499999999999995
    vertex 44.17500000000001 69.72500000000004 8.149999999999986
    vertex 44.17499999999999 90.27500000000003 8.149999999999988
  endloop
endfacet
facet normal -1.0 -6.743194511572521e-16 -3.6613948935639966e-33
  outer loop
    vertex 44.17500000000003 57.50000000000003 3.499999999999992
    vertex 44.17500000000001 81.10712770930938 2.499999999999994
    vertex 44.17500000000003 57.50000000000003 2.4999999999999925
  endloop
endfacet
facet normal -1.0 -6.743194511572521e-16 -3.6613948935639966e-33
  outer loop
    vertex 44.17500000000001 81.10712770930938 2.499999999999994
    vertex 44.17500000000003 57.50000000000003 3.499999999999992
    vertex 44.175000000000004 84.70712770930938 2.499999999999994
  endloop
endfacet
facet normal -1.0 -6.743194511572521e-16 -3.6613948935639966e-33
  outer loop
    vertex 44.175000000000004 84.70712770930938 2.499999999999994
    vertex 44.17500000000003 57.50000000000003 3.499999999999992
    vertex 44.17499999999996 132.77500000000003 2.4999999999999956
  endloop
endfacet
facet normal -1.0 -6.743194511572521e-16 -3.6613948935639966e-33
  outer loop
    vertex 44.17499999999996 132.77500000000003 2.4999999999999956
    vertex 44.17500000000003 57.50000000000003 3.499999999999992
    vertex 44.17499999999998 114.7250000000001 3.499999999999995
  endloop
endfacet
facet normal -1.0 -6.743194511572521e-16 -3.6613948935639966e-33
  outer loop
    vertex 44.17499999999996 132.77500000000003 2.4999999999999956
    vertex 44.17499999999998 114.7250000000001 3.499999999999995
    vertex 44.17499999999996 132.77500000000003 8.149999999999979
  endloop
endfacet
facet normal -1.0 -6.743194511572521e-16 -3.6613948935639966e-33
  outer loop
    vertex 44.17499999999998 114.7250000000001 3.499999999999995
    vertex 44.17500000000003 57.50000000000003 3.499999999999992
    vertex 44.17500000000001 69.72500000000004 3.499999999999994
  endloop
endfacet
facet normal -1.0 -6.743194511572521e-16 -3.6613948935639966e-33
  outer loop
    vertex 44.17499999999998 114.7250000000001 3.499999999999995
    vertex 44.17500000000001 69.72500000000004 3.499999999999994
    vertex 44.17499999999999 90.27500000000003 3.499999999999995
  endloop
endfacet
facet normal -1.0 -6.743194511572521e-16 -3.6613948935639966e-33
  outer loop
    vertex 44.17499999999996 132.77500000000003 8.149999999999979
    vertex 44.17499999999998 114.7250000000001 3.499999999999995
    vertex 44.17499999999998 114.7250000000001 8.149999999999979
  endloop
endfacet
facet normal -0.5635116675506922 -0.8261081046293145 -1.6553473441567428e-17
  outer loop
    vertex 62.50000000000001 45.00000000000003 2.4999999999999925
    vertex 44.17500000000003 57.50000000000003 3.499999999999992
    vertex 44.17500000000003 57.50000000000003 2.4999999999999925
  endloop
endfacet
facet normal -0.5635116675506922 -0.8261081046293145 -1.6553473441567428e-17
  outer loop
    vertex 44.17500000000003 57.50000000000003 3.499999999999992
    vertex 62.50000000000001 45.00000000000003 2.4999999999999925
    vertex 62.50000000000001 45.00000000000003 3.499999999999992
  endloop
endfacet
facet normal 0.5635116675506925 -0.8261081046293143 -1.6553473441567434e-17
  outer loop
    vertex 140.82500000000002 57.500000000000085 2.4999999999999925
    vertex 122.49999999999997 45.00000000000005 3.499999999999992
    vertex 122.49999999999997 45.00000000000005 2.4999999999999925
  endloop
endfacet
facet normal 0.5635116675506925 -0.8261081046293143 -1.6553473441567434e-17
  outer loop
    vertex 122.49999999999997 45.00000000000005 3.499999999999992
    vertex 140.82500000000002 57.500000000000085 2.4999999999999925
    vertex 128.530589163794 49.113635173120095 3.499999999999992
  endloop
endfacet
facet normal 0.5635116675506925 -0.8261081046293143 -1.6553473441567434e-17
  outer loop
    vertex 128.530589163794 49.113635173120095 3.499999999999992
    vertex 140.82500000000002 57.500000000000085 2.4999999999999925
    vertex 140.82500000000002 57.500000000000085 3.499999999999992
  endloop
endfacet
facet normal 1.0 5.993950676953351e-16 2.160067422240885e-33
  outer loop
    vertex 140.82500000000002 68.32500000000009 2.499999999999993
    vertex 140.82500000000002 57.500000000000085 3.499999999999992
    vertex 140.82500000000002 57.500000000000085 2.4999999999999925
  endloop
endfacet
facet normal 1.0 5.993950676953351e-16 2.160067422240885e-33
  outer loop
    vertex 140.82500000000002 57.500000000000085 3.499999999999992
    vertex 140.82500000000002 68.32500000000009 2.499999999999993
    vertex 140.82500000000002 74.7250000000001 2.4999999999999933
  endloop
endfacet
facet normal 1.0 5.993950676953351e-16 2.160067422240885e-33
  outer loop
    vertex 140.82500000000002 57.500000000000085 3.499999999999992
    vertex 140.82500000000002 74.7250000000001 2.4999999999999933
    vertex 140.82499999999996 132.7750000000001 2.4999999999999956
  endloop
endfacet
facet normal 1.0 5.993950676953351e-16 2.160067422240885e-33
  outer loop
    vertex 140.82500000000002 57.500000000000085 3.499999999999992
    vertex 140.82499999999996 132.7750000000001 2.4999999999999956
    vertex 140.825 114.7250000000001 3.499999999999995
  endloop
endfacet
facet normal 1.0 5.993950676953351e-16 2.160067422240885e-33
  outer loop
    vertex 140.825 114.7250000000001 3.499999999999995
    vertex 140.82499999999996 132.7750000000001 2.4999999999999956
    vertex 140.82499999999996 132.7750000000001 8.149999999999984
  endloop
endfacet
facet normal 1.0 5.993950676953351e-16 2.160067422240885e-33
  outer loop
    vertex 140.82500000000002 57.500000000000085 3.499999999999992
    vertex 140.825 114.7250000000001 3.499999999999995
    vertex 140.82500000000002 69.7250000000001 3.499999999999994
  endloop
endfacet
facet normal 1.0 5.993950676953351e-16 2.160067422240885e-33
  outer loop
    vertex 140.82500000000002 69.7250000000001 3.499999999999994
    vertex 140.825 114.7250000000001 3.499999999999995
    vertex 140.82500000000002 90.27500000000009 3.4999999999999942
  endloop
endfacet
facet normal 1.0 5.993950676953351e-16 2.160067422240885e-33
  outer loop
    vertex 140.825 114.7250000000001 3.499999999999995
    vertex 140.82499999999996 132.7750000000001 8.149999999999984
    vertex 140.825 114.7250000000001 8.149999999999984
  endloop
endfacet
facet normal 1.0 5.993950676953351e-16 2.160067422240885e-33
  outer loop
    vertex 140.82500000000002 90.27500000000009 3.4999999999999942
    vertex 140.82500000000002 69.7250000000001 8.149999999999991
    vertex 140.82500000000002 69.7250000000001 3.499999999999994
  endloop
endfacet
facet normal 1.0 5.993950676953351e-16 2.160067422240885e-33
  outer loop
    vertex 140.82500000000002 69.7250000000001 8.149999999999991
    vertex 140.82500000000002 90.27500000000009 3.4999999999999942
    vertex 140.82500000000002 90.27500000000009 8.149999999999991
  endloop
endfacet
facet normal 0.7071067811865476 0.7071067811865476 1.4168936555798545e-17
  outer loop
    vertex 138.32499999999996 135.2750000000001 8.149999999999984
    vertex 140.82499999999996 132.7750000000001 2.4999999999999956
    vertex 138.32499999999996 135.2750000000001 2.4999999999999956
  endloop
endfacet
facet normal 0.7071067811865476 0.7071067811865476 1.4168936555798545e-17
  outer loop
    vertex 140.82499999999996 132.7750000000001 2.4999999999999956
    vertex 138.32499999999996 135.2750000000001 8.149999999999984
    vertex 140.82499999999996 132.7750000000001 8.149999999999984
  endloop
endfacet
facet normal -1.0 -7.221846401251758e-16 1.9851015754514738e-31
  outer loop
    vertex 130.82500000000002 85.27500000000008 2.4999999999999956
    vertex 130.82500000000002 90.27500000000009 3.499999999999995
    vertex 130.825 119.7250000000001 2.4999999999999956
  endloop
endfacet
facet normal -1.0 -7.221846401251758e-16 1.9851015754514738e-31
  outer loop
    vertex 130.82500000000002 90.27500000000009 3.499999999999995
    vertex 130.82500000000002 85.27500000000008 2.4999999999999956
    vertex 130.82500000000002 85.27500000000008 5.649999999999995
  endloop
endfacet
facet normal -1.0 -7.221846401251758e-16 1.9851015754514738e-31
  outer loop
    vertex 130.82500000000002 90.27500000000009 3.499999999999995
    vertex 130.82500000000002 85.27500000000008 5.649999999999995
    vertex 130.82500000000002 90.27500000000009 8.149999999999991
  endloop
endfacet
facet normal -1.0 -7.221846401251758e-16 1.9851015754514738e-31
  outer loop
    vertex 130.82500000000002 90.27500000000009 8.149999999999991
    vertex 130.82500000000002 85.27500000000008 5.649999999999995
    vertex 130.82500000000002 85.27500000000008 8.149999999999991
  endloop
endfacet
facet normal -1.0 -7.221846401251758e-16 1.9851015754514738e-31
  outer loop
    vertex 130.825 119.7250000000001 2.4999999999999956
    vertex 130.825 114.7250000000001 3.499999999999995
    vertex 130.825 119.7250000000001 5.649999999999995
  endloop
endfacet
facet normal -1.0 -7.221846401251758e-16 1.9851015754514738e-31
  outer loop
    vertex 130.825 114.7250000000001 3.499999999999995
    vertex 130.825 119.7250000000001 2.4999999999999956
    vertex 130.82500000000002 90.27500000000009 3.499999999999995
  endloop
endfacet
facet normal -1.0 -7.221846401251758e-16 1.9851015754514738e-31
  outer loop
    vertex 130.825 119.7250000000001 5.649999999999995
    vertex 130.825 114.7250000000001 3.499999999999995
    vertex 130.825 114.7250000000001 8.149999999999984
  endloop
endfacet
facet normal -1.0 -7.221846401251758e-16 1.9851015754514738e-31
  outer loop
    vertex 130.825 119.7250000000001 5.649999999999995
    vertex 130.825 114.7250000000001 8.149999999999984
    vertex 130.825 119.7250000000001 8.149999999999984
  endloop
endfacet
facet normal -0.9914448613738113 0.13052619222004555 2.6154710796754317e-18
  outer loop
    vertex 125.39777747886718 56.72354286469252 3.499999999999992
    vertex 125.49999999999997 57.50000000000008 2.4999999999999925
    vertex 125.39777747886718 56.72354286469252 2.4999999999999925
  endloop
endfacet
facet normal -0.9914448613738113 0.13052619222004555 2.6154710796754317e-18
  outer loop
    vertex 125.49999999999997 57.50000000000008 2.4999999999999925
    vertex 125.39777747886718 56.72354286469252 3.499999999999992
    vertex 125.49999999999997 57.50000000000008 3.499999999999992
  endloop
endfacet
facet normal -0.9238795325112803 0.3826834323651054 7.668173207217388e-18
  outer loop
    vertex 125.09807621135327 56.00000000000008 3.499999999999992
    vertex 125.39777747886718 56.72354286469252 2.4999999999999925
    vertex 125.09807621135327 56.00000000000008 2.4999999999999925
  endloop
endfacet
facet normal -0.9238795325112803 0.3826834323651054 7.668173207217388e-18
  outer loop
    vertex 125.39777747886718 56.72354286469252 2.4999999999999925
    vertex 125.09807621135327 56.00000000000008 3.499999999999992
    vertex 125.39777747886718 56.72354286469252 3.499999999999992
  endloop
endfacet
facet normal -0.7933533402912465 0.6087614290087061 1.219830200294185e-17
  outer loop
    vertex 124.62132034355963 55.37867965644044 3.499999999999992
    vertex 125.09807621135327 56.00000000000008 2.4999999999999925
    vertex 124.62132034355963 55.37867965644044 2.4999999999999925
  endloop
endfacet
facet normal -0.7933533402912465 0.6087614290087061 1.219830200294185e-17
  outer loop
    vertex 125.09807621135327 56.00000000000008 2.4999999999999925
    vertex 124.62132034355963 55.37867965644044 3.499999999999992
    vertex 125.09807621135327 56.00000000000008 3.499999999999992
  endloop
endfacet
facet normal -0.6087614290087033 0.7933533402912485 1.589713667581416e-17
  outer loop
    vertex 124.62132034355963 55.37867965644044 3.499999999999992
    vertex 123.99999999999996 54.90192378864676 2.4999999999999925
    vertex 123.99999999999996 54.90192378864676 3.499999999999992
  endloop
endfacet
facet normal -0.6087614290087033 0.7933533402912485 1.589713667581416e-17
  outer loop
    vertex 123.99999999999996 54.90192378864676 2.4999999999999925
    vertex 124.62132034355963 55.37867965644044 3.499999999999992
    vertex 124.62132034355963 55.37867965644044 2.4999999999999925
  endloop
endfacet
facet normal -0.3826834323651033 0.9238795325112812 1.8512607755489324e-17
  outer loop
    vertex 123.99999999999996 54.90192378864676 3.499999999999992
    vertex 123.27645713530754 54.60222252113287 2.4999999999999925
    vertex 123.27645713530754 54.60222252113287 3.499999999999992
  endloop
endfacet
facet normal -0.3826834323651033 0.9238795325112812 1.8512607755489324e-17
  outer loop
    vertex 123.27645713530754 54.60222252113287 2.4999999999999925
    vertex 123.99999999999996 54.90192378864676 3.499999999999992
    vertex 123.99999999999996 54.90192378864676 2.4999999999999925
  endloop
endfacet
facet normal -0.13052619222004555 0.9914448613738113 1.9866475210159216e-17
  outer loop
    vertex 123.27645713530754 54.60222252113287 3.499999999999992
    vertex 122.49999999999997 54.50000000000008 2.4999999999999925
    vertex 122.49999999999997 54.50000000000008 3.499999999999992
  endloop
endfacet
facet normal -0.13052619222004555 0.9914448613738113 1.9866475210159216e-17
  outer loop
    vertex 122.49999999999997 54.50000000000008 2.4999999999999925
    vertex 123.27645713530754 54.60222252113287 3.499999999999992
    vertex 123.27645713530754 54.60222252113287 2.4999999999999925
  endloop
endfacet
facet normal 0.13052619222005968 0.9914448613738094 1.9866475210159176e-17
  outer loop
    vertex 62.50000000000002 54.50000000000005 3.499999999999992
    vertex 61.72354286469246 54.602222521132845 2.4999999999999925
    vertex 61.72354286469246 54.602222521132845 3.499999999999992
  endloop
endfacet
facet normal 0.13052619222005968 0.9914448613738094 1.9866475210159176e-17
  outer loop
    vertex 61.72354286469246 54.602222521132845 2.4999999999999925
    vertex 62.50000000000002 54.50000000000005 3.499999999999992
    vertex 62.50000000000002 54.50000000000005 2.4999999999999925
  endloop
endfacet
facet normal 0.38268343236508073 0.9238795325112904 1.8512607755489503e-17
  outer loop
    vertex 61.72354286469246 54.602222521132845 3.499999999999992
    vertex 61.00000000000002 54.90192378864673 2.4999999999999925
    vertex 61.00000000000002 54.90192378864673 3.499999999999992
  endloop
endfacet
facet normal 0.38268343236508073 0.9238795325112904 1.8512607755489503e-17
  outer loop
    vertex 61.00000000000002 54.90192378864673 2.4999999999999925
    vertex 61.72354286469246 54.602222521132845 3.499999999999992
    vertex 61.72354286469246 54.602222521132845 2.4999999999999925
  endloop
endfacet
facet normal 0.6087614290087312 0.7933533402912273 1.5897136675813726e-17
  outer loop
    vertex 61.00000000000002 54.90192378864673 3.499999999999992
    vertex 60.3786796564404 55.378679656440404 2.4999999999999925
    vertex 60.3786796564404 55.378679656440404 3.499999999999992
  endloop
endfacet
facet normal 0.6087614290087312 0.7933533402912273 1.5897136675813726e-17
  outer loop
    vertex 60.3786796564404 55.378679656440404 2.4999999999999925
    vertex 61.00000000000002 54.90192378864673 3.499999999999992
    vertex 61.00000000000002 54.90192378864673 2.4999999999999925
  endloop
endfacet
facet normal 0.7933533402912326 0.6087614290087243 1.2198302002942198e-17
  outer loop
    vertex 59.90192378864672 56.00000000000004 3.499999999999992
    vertex 60.3786796564404 55.378679656440404 2.4999999999999925
    vertex 59.90192378864672 56.00000000000004 2.4999999999999925
  endloop
endfacet
facet normal 0.7933533402912326 0.6087614290087243 1.2198302002942198e-17
  outer loop
    vertex 60.3786796564404 55.378679656440404 2.4999999999999925
    vertex 59.90192378864672 56.00000000000004 3.499999999999992
    vertex 60.3786796564404 55.378679656440404 3.499999999999992
  endloop
endfacet
facet normal 0.9238795325112803 0.3826834323651054 7.668173207217369e-18
  outer loop
    vertex 59.602222521132816 56.72354286469248 3.499999999999992
    vertex 59.90192378864672 56.00000000000004 2.4999999999999925
    vertex 59.602222521132816 56.72354286469248 2.4999999999999925
  endloop
endfacet
facet normal 0.9238795325112803 0.3826834323651054 7.668173207217369e-18
  outer loop
    vertex 59.90192378864672 56.00000000000004 2.4999999999999925
    vertex 59.602222521132816 56.72354286469248 3.499999999999992
    vertex 59.90192378864672 56.00000000000004 3.499999999999992
  endloop
endfacet
facet normal 0.9914448613738113 0.13052619222004555 2.6154710796754125e-18
  outer loop
    vertex 59.50000000000003 57.50000000000004 3.499999999999992
    vertex 59.602222521132816 56.72354286469248 2.4999999999999925
    vertex 59.50000000000003 57.50000000000004 2.4999999999999925
  endloop
endfacet
facet normal 0.9914448613738113 0.13052619222004555 2.6154710796754125e-18
  outer loop
    vertex 59.602222521132816 56.72354286469248 2.4999999999999925
    vertex 59.50000000000003 57.50000000000004 3.499999999999992
    vertex 59.602222521132816 56.72354286469248 3.499999999999992
  endloop
endfacet
facet normal 0.9914448613738096 -0.13052619222005782 -2.615471079675678e-18
  outer loop
    vertex 59.60222252113283 58.27645713530761 3.499999999999992
    vertex 59.50000000000003 57.50000000000004 2.4999999999999925
    vertex 59.60222252113283 58.27645713530761 2.4999999999999925
  endloop
endfacet
facet normal 0.9914448613738096 -0.13052619222005782 -2.615471079675678e-18
  outer loop
    vertex 59.50000000000003 57.50000000000004 2.4999999999999925
    vertex 59.60222252113283 58.27645713530761 3.499999999999992
    vertex 59.50000000000003 57.50000000000004 3.499999999999992
  endloop
endfacet
facet normal 0.9238795325112885 -0.382683432365086 -7.668173207216998e-18
  outer loop
    vertex 59.90192378864671 59.000000000000036 3.499999999999992
    vertex 59.60222252113283 58.27645713530761 2.4999999999999925
    vertex 59.90192378864671 59.000000000000036 2.4999999999999925
  endloop
endfacet
facet normal 0.9238795325112885 -0.382683432365086 -7.668173207216998e-18
  outer loop
    vertex 59.60222252113283 58.27645713530761 2.4999999999999925
    vertex 59.90192378864671 59.000000000000036 3.499999999999992
    vertex 59.60222252113283 58.27645713530761 3.499999999999992
  endloop
endfacet
facet normal 0.7933533402912326 -0.6087614290087243 -1.2198302002942215e-17
  outer loop
    vertex 60.37867965644038 59.62132034355968 3.499999999999992
    vertex 59.90192378864671 59.000000000000036 2.4999999999999925
    vertex 60.37867965644038 59.62132034355968 2.4999999999999925
  endloop
endfacet
facet normal 0.7933533402912326 -0.6087614290087243 -1.2198302002942215e-17
  outer loop
    vertex 59.90192378864671 59.000000000000036 2.4999999999999925
    vertex 60.37867965644038 59.62132034355968 3.499999999999992
    vertex 59.90192378864671 59.000000000000036 3.499999999999992
  endloop
endfacet
facet normal 0.6087614290087243 -0.7933533402912326 -1.5897136675813843e-17
  outer loop
    vertex 61.00000000000002 60.09807621135335 2.4999999999999925
    vertex 60.37867965644038 59.62132034355968 3.499999999999992
    vertex 60.37867965644038 59.62132034355968 2.4999999999999925
  endloop
endfacet
facet normal 0.6087614290087243 -0.7933533402912326 -1.5897136675813843e-17
  outer loop
    vertex 60.37867965644038 59.62132034355968 3.499999999999992
    vertex 61.00000000000002 60.09807621135335 2.4999999999999925
    vertex 61.00000000000002 60.09807621135335 3.499999999999992
  endloop
endfacet
facet normal 0.38268343236509306 -0.9238795325112853 -1.8512607755489407e-17
  outer loop
    vertex 61.72354286469246 60.39777747886725 2.4999999999999925
    vertex 61.00000000000002 60.09807621135335 3.499999999999992
    vertex 61.00000000000002 60.09807621135335 2.4999999999999925
  endloop
endfacet
facet normal 0.38268343236509306 -0.9238795325112853 -1.8512607755489407e-17
  outer loop
    vertex 61.00000000000002 60.09807621135335 3.499999999999992
    vertex 61.72354286469246 60.39777747886725 2.4999999999999925
    vertex 61.72354286469246 60.39777747886725 3.499999999999992
  endloop
endfacet
facet normal 0.13052619222004555 -0.9914448613738113 -1.9866475210159216e-17
  outer loop
    vertex 62.50000000000002 60.500000000000036 2.4999999999999925
    vertex 61.72354286469246 60.39777747886725 3.499999999999992
    vertex 61.72354286469246 60.39777747886725 2.4999999999999925
  endloop
endfacet
facet normal 0.13052619222004555 -0.9914448613738113 -1.9866475210159216e-17
  outer loop
    vertex 61.72354286469246 60.39777747886725 3.499999999999992
    vertex 62.50000000000002 60.500000000000036 2.4999999999999925
    vertex 62.50000000000002 60.500000000000036 3.499999999999992
  endloop
endfacet
facet normal -0.13052619222005968 -0.9914448613738094 -1.9866475210159176e-17
  outer loop
    vertex 123.27645713530754 60.39777747886727 2.4999999999999925
    vertex 122.49999999999997 60.50000000000007 3.499999999999992
    vertex 122.49999999999997 60.50000000000007 2.4999999999999925
  endloop
endfacet
facet normal -0.13052619222005968 -0.9914448613738094 -1.9866475210159176e-17
  outer loop
    vertex 122.49999999999997 60.50000000000007 3.499999999999992
    vertex 123.27645713530754 60.39777747886727 2.4999999999999925
    vertex 123.27645713530754 60.39777747886727 3.499999999999992
  endloop
endfacet
facet normal -0.382683432365091 -0.9238795325112863 -1.851260775548942e-17
  outer loop
    vertex 123.99999999999996 60.09807621135339 2.4999999999999925
    vertex 123.27645713530754 60.39777747886727 3.499999999999992
    vertex 123.27645713530754 60.39777747886727 2.4999999999999925
  endloop
endfacet
facet normal -0.382683432365091 -0.9238795325112863 -1.851260775548942e-17
  outer loop
    vertex 123.27645713530754 60.39777747886727 3.499999999999992
    vertex 123.99999999999996 60.09807621135339 2.4999999999999925
    vertex 123.99999999999996 60.09807621135339 3.499999999999992
  endloop
endfacet
facet normal -0.6087614290087033 -0.7933533402912485 -1.5897136675814148e-17
  outer loop
    vertex 124.62132034355963 59.62132034355971 2.4999999999999925
    vertex 123.99999999999996 60.09807621135339 3.499999999999992
    vertex 123.99999999999996 60.09807621135339 2.4999999999999925
  endloop
endfacet
facet normal -0.6087614290087033 -0.7933533402912485 -1.5897136675814148e-17
  outer loop
    vertex 123.99999999999996 60.09807621135339 3.499999999999992
    vertex 124.62132034355963 59.62132034355971 2.4999999999999925
    vertex 124.62132034355963 59.62132034355971 3.499999999999992
  endloop
endfacet
facet normal -0.7933533402912465 -0.6087614290087061 -1.2198302002941835e-17
  outer loop
    vertex 125.09807621135327 59.00000000000007 3.499999999999992
    vertex 124.62132034355963 59.62132034355971 2.4999999999999925
    vertex 125.09807621135327 59.00000000000007 2.4999999999999925
  endloop
endfacet
facet normal -0.7933533402912465 -0.6087614290087061 -1.2198302002941835e-17
  outer loop
    vertex 124.62132034355963 59.62132034355971 2.4999999999999925
    vertex 125.09807621135327 59.00000000000007 3.499999999999992
    vertex 124.62132034355963 59.62132034355971 3.499999999999992
  endloop
endfacet
facet normal -0.9238795325112803 -0.3826834323651054 -7.668173207217369e-18
  outer loop
    vertex 125.39777747886718 58.27645713530763 3.499999999999992
    vertex 125.09807621135327 59.00000000000007 2.4999999999999925
    vertex 125.39777747886718 58.27645713530763 2.4999999999999925
  endloop
endfacet
facet normal -0.9238795325112803 -0.3826834323651054 -7.668173207217369e-18
  outer loop
    vertex 125.09807621135327 59.00000000000007 2.4999999999999925
    vertex 125.39777747886718 58.27645713530763 3.499999999999992
    vertex 125.09807621135327 59.00000000000007 3.499999999999992
  endloop
endfacet
facet normal -0.9914448613738113 -0.13052619222004555 -2.6154710796754125e-18
  outer loop
    vertex 125.49999999999997 57.50000000000008 3.499999999999992
    vertex 125.39777747886718 58.27645713530763 2.4999999999999925
    vertex 125.49999999999997 57.50000000000008 2.4999999999999925
  endloop
endfacet
facet normal -0.9914448613738113 -0.13052619222004555 -2.6154710796754125e-18
  outer loop
    vertex 125.39777747886718 58.27645713530763 2.4999999999999925
    vertex 125.49999999999997 57.50000000000008 3.499999999999992
    vertex 125.39777747886718 58.27645713530763 3.499999999999992
  endloop
endfacet
facet normal 3.524958103184879e-17 -1.4417006556993293e-17 1.0
  outer loop
    vertex 130.82500000000002 90.27500000000009 3.499999999999995
    vertex 140.825 114.7250000000001 3.499999999999995
    vertex 130.825 114.7250000000001 3.499999999999995
  endloop
endfacet
facet normal 3.524958103184879e-17 -1.4417006556993293e-17 1.0
  outer loop
    vertex 140.825 114.7250000000001 3.499999999999995
    vertex 130.82500000000002 90.27500000000009 3.499999999999995
    vertex 140.82500000000002 90.27500000000009 3.4999999999999942
  endloop
endfacet
facet normal 0.0 0.0 1.0
  outer loop
    vertex 44.17499999999999 90.27500000000003 3.499999999999995
    vertex 54.174999999999976 114.7250000000001 3.499999999999995
    vertex 44.17499999999998 114.7250000000001 3.499999999999995
  endloop
endfacet
facet normal 0.0 0.0 1.0
  outer loop
    vertex 54.174999999999976 114.7250000000001 3.499999999999995
    vertex 44.17499999999999 90.27500000000003 3.499999999999995
    vertex 54.175 90.27500000000005 3.499999999999995
  endloop
endfacet
facet normal -1.127986593019161e-15 1.0 1.3575189329269732e-17
  outer loop
    vertex 140.82500000000002 90.27500000000009 8.149999999999991
    vertex 130.82500000000002 90.27500000000009 3.499999999999995
    vertex 130.82500000000002 90.27500000000009 8.149999999999991
  endloop
endfacet
facet normal -1.127986593019161e-15 1.0 1.3575189329269732e-17
  outer loop
    vertex 130.82500000000002 90.27500000000009 3.499999999999995
    vertex 140.82500000000002 90.27500000000009 8.149999999999991
    vertex 140.82500000000002 90.27500000000009 3.4999999999999942
  endloop
endfacet
facet normal 0.0 -1.0 -1.3575189329269624e-17
  outer loop
    vertex 140.82500000000002 69.7250000000001 3.499999999999994
    vertex 130.82500000000002 69.7250000000001 8.149999999999991
    vertex 130.82500000000002 69.7250000000001 3.499999999999995
  endloop
endfacet
facet normal 0.0 -1.0 -1.3575189329269624e-17
  outer loop
    vertex 130.82500000000002 69.7250000000001 8.149999999999991
    vertex 140.82500000000002 69.7250000000001 3.499999999999994
    vertex 140.82500000000002 69.7250000000001 8.149999999999991
  endloop
endfacet
facet normal 0.0 -1.0 0.0
  outer loop
    vertex 140.825 114.7250000000001 3.499999999999995
    vertex 130.825 114.7250000000001 8.149999999999984
    vertex 130.825 114.7250000000001 3.499999999999995
  endloop
endfacet
facet normal 0.0 -1.0 0.0
  outer loop
    vertex 130.825 114.7250000000001 8.149999999999984
    vertex 140.825 114.7250000000001 3.499999999999995
    vertex 140.825 114.7250000000001 8.149999999999984
  endloop
endfacet
facet normal -1.0 0.0 0.0
  outer loop
    vertex 130.825 130.2750000000001 5.649999999999995
    vertex 130.825 135.2750000000001 3.499999999999995
    vertex 130.825 130.2750000000001 3.499999999999995
  endloop
endfacet
facet normal -1.0 0.0 0.0
  outer loop
    vertex 130.825 135.2750000000001 3.499999999999995
    vertex 130.825 130.2750000000001 5.649999999999995
    vertex 130.825 135.2750000000001 8.149999999999984
  endloop
endfacet
facet normal -1.0 0.0 0.0
  outer loop
    vertex 130.825 135.2750000000001 8.149999999999984
    vertex 130.825 130.2750000000001 5.649999999999995
    vertex 130.825 130.2750000000001 8.149999999999984
  endloop
endfacet
facet normal 0.0 -1.0 0.0
  outer loop
    vertex 54.174999999999976 114.7250000000001 3.499999999999995
    vertex 44.17499999999998 114.7250000000001 8.149999999999979
    vertex 44.17499999999998 114.7250000000001 3.499999999999995
  endloop
endfacet
facet normal 0.0 -1.0 0.0
  outer loop
    vertex 44.17499999999998 114.7250000000001 8.149999999999979
    vertex 54.174999999999976 114.7250000000001 3.499999999999995
    vertex 54.174999999999976 114.7250000000001 8.149999999999979
  endloop
endfacet
facet normal 1.0 -4.5119463720766426e-15 -7.716463877308165e-32
  outer loop
    vertex 54.175 135.27500000000003 8.149999999999979
    vertex 54.174999999999976 130.27500000000003 3.499999999999995
    vertex 54.175 135.27500000000003 3.499999999999995
  endloop
endfacet
facet normal 1.0 -4.5119463720766426e-15 -7.716463877308165e-32
  outer loop
    vertex 54.174999999999976 130.27500000000003 3.499999999999995
    vertex 54.175 135.27500000000003 8.149999999999979
    vertex 54.174999999999976 130.27500000000003 5.649999999999995
  endloop
endfacet
facet normal 1.0 -4.5119463720766426e-15 -7.716463877308165e-32
  outer loop
    vertex 54.174999999999976 130.27500000000003 5.649999999999995
    vertex 54.175 135.27500000000003 8.149999999999979
    vertex 54.174999999999976 130.27500000000003 8.149999999999979
  endloop
endfacet
facet normal -5.1612330748929526e-17 -5.997878983770384e-32 1.0
  outer loop
    vertex 135.82500000000002 85.27500000000008 5.649999999999995
    vertex 130.82500000000002 85.27500000000008 5.649999999999995
    vertex 54.175 85.27500000000003 5.6499999999999915
  endloop
endfacet
facet normal -5.1612330748929526e-17 -5.997878983770384e-32 1.0
  outer loop
    vertex 49.175 74.72500000000004 5.6499999999999915
    vertex 54.175 85.27500000000003 5.6499999999999915
    vertex 49.17499999999999 85.27500000000003 5.6499999999999915
  endloop
endfacet
facet normal -5.1612330748929526e-17 -5.997878983770384e-32 1.0
  outer loop
    vertex 54.175 85.27500000000003 5.6499999999999915
    vertex 49.175 74.72500000000004 5.6499999999999915
    vertex 135.82500000000002 85.27500000000008 5.649999999999995
  endloop
endfacet
facet normal -5.1612330748929526e-17 -5.997878983770384e-32 1.0
  outer loop
    vertex 135.82500000000002 85.27500000000008 5.649999999999995
    vertex 49.175 74.72500000000004 5.6499999999999915
    vertex 130.82500000000002 74.7250000000001 5.649999999999995
  endloop
endfacet
facet normal -5.1612330748929526e-17 -5.997878983770384e-32 1.0
  outer loop
    vertex 130.82500000000002 74.7250000000001 5.649999999999995
    vertex 49.175 74.72500000000004 5.6499999999999915
    vertex 54.17500000000002 74.72500000000001 5.6499999999999915
  endloop
endfacet
facet normal -5.1612330748929526e-17 -5.997878983770384e-32 1.0
  outer loop
    vertex 135.82500000000002 74.7250000000001 5.649999999999995
    vertex 135.82500000000002 85.27500000000008 5.649999999999995
    vertex 130.82500000000002 74.7250000000001 5.649999999999995
  endloop
endfacet
facet normal -1.1279865930191585e-15 1.0 2.7150378658539224e-17
  outer loop
    vertex 54.175 90.27500000000005 8.149999999999988
    vertex 44.17499999999999 90.27500000000003 3.499999999999995
    vertex 44.17499999999999 90.27500000000003 8.149999999999988
  endloop
endfacet
facet normal -1.1279865930191585e-15 1.0 2.7150378658539224e-17
  outer loop
    vertex 44.17499999999999 90.27500000000003 3.499999999999995
    vertex 54.175 90.27500000000005 8.149999999999988
    vertex 54.175 90.27500000000005 3.499999999999995
  endloop
endfacet
facet normal 1.1279865930191579e-15 -1.0 -2.7150378658539224e-17
  outer loop
    vertex 54.17500000000002 69.72500000000002 3.499999999999995
    vertex 44.17500000000001 69.72500000000004 8.149999999999986
    vertex 44.17500000000001 69.72500000000004 3.499999999999994
  endloop
endfacet
facet normal 1.1279865930191579e-15 -1.0 -2.7150378658539224e-17
  outer loop
    vertex 44.17500000000001 69.72500000000004 8.149999999999986
    vertex 54.17500000000002 69.72500000000002 3.499999999999995
    vertex 54.17500000000002 69.72500000000002 8.149999999999988
  endloop
endfacet
facet normal 1.2818029466126832e-16 5.14824153348643e-33 1.0
  outer loop
    vertex 130.82500000000002 69.7250000000001 8.149999999999991
    vertex 135.82500000000002 74.7250000000001 8.149999999999991
    vertex 130.82500000000002 74.7250000000001 8.149999999999991
  endloop
endfacet
facet normal 1.2818029466126832e-16 5.14824153348643e-33 1.0
  outer loop
    vertex 130.82500000000002 85.27500000000008 8.149999999999991
    vertex 140.82500000000002 90.27500000000009 8.149999999999991
    vertex 130.82500000000002 90.27500000000009 8.149999999999991
  endloop
endfacet
facet normal 1.2818029466126832e-16 5.14824153348643e-33 1.0
  outer loop
    vertex 140.82500000000002 90.27500000000009 8.149999999999991
    vertex 130.82500000000002 85.27500000000008 8.149999999999991
    vertex 135.82500000000002 85.27500000000008 8.149999999999991
  endloop
endfacet
facet normal 1.2818029466126832e-16 5.14824153348643e-33 1.0
  outer loop
    vertex 140.82500000000002 90.27500000000009 8.149999999999991
    vertex 135.82500000000002 85.27500000000008 8.149999999999991
    vertex 140.82500000000002 69.7250000000001 8.149999999999991
  endloop
endfacet
facet normal 1.2818029466126832e-16 5.14824153348643e-33 1.0
  outer loop
    vertex 140.82500000000002 69.7250000000001 8.149999999999991
    vertex 135.82500000000002 85.27500000000008 8.149999999999991
    vertex 135.82500000000002 74.7250000000001 8.149999999999991
  endloop
endfacet
facet normal 1.2818029466126832e-16 5.14824153348643e-33 1.0
  outer loop
    vertex 140.82500000000002 69.7250000000001 8.149999999999991
    vertex 135.82500000000002 74.7250000000001 8.149999999999991
    vertex 130.82500000000002 69.7250000000001 8.149999999999991
  endloop
endfacet
facet normal 0.0 -1.0 0.0
  outer loop
    vertex 135.82500000000002 85.27500000000008 5.649999999999995
    vertex 130.82500000000002 85.27500000000008 8.149999999999991
    vertex 130.82500000000002 85.27500000000008 5.649999999999995
  endloop
endfacet
facet normal 0.0 -1.0 0.0
  outer loop
    vertex 130.82500000000002 85.27500000000008 8.149999999999991
    vertex 135.82500000000002 85.27500000000008 5.649999999999995
    vertex 135.82500000000002 85.27500000000008 8.149999999999991
  endloop
endfacet
facet normal -1.0 0.0 1.2818029466126832e-16
  outer loop
    vertex 135.82500000000002 74.7250000000001 8.149999999999991
    vertex 135.82500000000002 85.27500000000008 5.649999999999995
    vertex 135.82500000000002 74.7250000000001 5.649999999999995
  endloop
endfacet
facet normal -1.0 0.0 1.2818029466126832e-16
  outer loop
    vertex 135.82500000000002 85.27500000000008 5.649999999999995
    vertex 135.82500000000002 74.7250000000001 8.149999999999991
    vertex 135.82500000000002 85.27500000000008 8.149999999999991
  endloop
endfacet
facet normal 0.0 1.0 0.0
  outer loop
    vertex 135.82500000000002 74.7250000000001 8.149999999999991
    vertex 130.82500000000002 74.7250000000001 5.649999999999995
    vertex 130.82500000000002 74.7250000000001 8.149999999999991
  endloop
endfacet
facet normal 0.0 1.0 0.0
  outer loop
    vertex 130.82500000000002 74.7250000000001 5.649999999999995
    vertex 135.82500000000002 74.7250000000001 8.149999999999991
    vertex 135.82500000000002 74.7250000000001 5.649999999999995
  endloop
endfacet
facet normal 0.0 0.0 1.0
  outer loop
    vertex 130.825 114.7250000000001 8.149999999999984
    vertex 135.82500000000002 119.7250000000001 8.149999999999984
    vertex 130.825 119.7250000000001 8.149999999999984
  endloop
endfacet
facet normal 0.0 0.0 1.0
  outer loop
    vertex 130.825 130.2750000000001 8.149999999999984
    vertex 138.32499999999996 135.2750000000001 8.149999999999984
    vertex 130.825 135.2750000000001 8.149999999999984
  endloop
endfacet
facet normal 0.0 0.0 1.0
  outer loop
    vertex 138.32499999999996 135.2750000000001 8.149999999999984
    vertex 130.825 130.2750000000001 8.149999999999984
    vertex 140.82499999999996 132.7750000000001 8.149999999999984
  endloop
endfacet
facet normal 0.0 0.0 1.0
  outer loop
    vertex 140.82499999999996 132.7750000000001 8.149999999999984
    vertex 130.825 130.2750000000001 8.149999999999984
    vertex 135.82500000000002 130.2750000000001 8.149999999999984
  endloop
endfacet
facet normal 0.0 0.0 1.0
  outer loop
    vertex 140.82499999999996 132.7750000000001 8.149999999999984
    vertex 135.82500000000002 130.2750000000001 8.149999999999984
    vertex 140.825 114.7250000000001 8.149999999999984
  endloop
endfacet
facet normal 0.0 0.0 1.0
  outer loop
    vertex 140.825 114.7250000000001 8.149999999999984
    vertex 135.82500000000002 130.2750000000001 8.149999999999984
    vertex 135.82500000000002 119.7250000000001 8.149999999999984
  endloop
endfacet
facet normal 0.0 0.0 1.0
  outer loop
    vertex 140.825 114.7250000000001 8.149999999999984
    vertex 135.82500000000002 119.7250000000001 8.149999999999984
    vertex 130.825 114.7250000000001 8.149999999999984
  endloop
endfacet
facet normal 0.0 -1.0 0.0
  outer loop
    vertex 135.82500000000002 130.2750000000001 5.649999999999995
    vertex 130.825 130.2750000000001 8.149999999999984
    vertex 130.825 130.2750000000001 5.649999999999995
  endloop
endfacet
facet normal 0.0 -1.0 0.0
  outer loop
    vertex 130.825 130.2750000000001 8.149999999999984
    vertex 135.82500000000002 130.2750000000001 5.649999999999995
    vertex 135.82500000000002 130.2750000000001 8.149999999999984
  endloop
endfacet
facet normal -1.0 0.0 0.0
  outer loop
    vertex 135.82500000000002 119.7250000000001 8.149999999999984
    vertex 135.82500000000002 130.2750000000001 5.649999999999995
    vertex 135.82500000000002 119.7250000000001 5.649999999999995
  endloop
endfacet
facet normal -1.0 0.0 0.0
  outer loop
    vertex 135.82500000000002 130.2750000000001 5.649999999999995
    vertex 135.82500000000002 119.7250000000001 8.149999999999984
    vertex 135.82500000000002 130.2750000000001 8.149999999999984
  endloop
endfacet
facet normal 0.0 1.0 0.0
  outer loop
    vertex 135.82500000000002 119.7250000000001 8.149999999999984
    vertex 130.825 119.7250000000001 5.649999999999995
    vertex 130.825 119.7250000000001 8.149999999999984
  endloop
endfacet
facet normal 0.0 1.0 0.0
  outer loop
    vertex 130.825 119.7250000000001 5.649999999999995
    vertex 135.82500000000002 119.7250000000001 8.149999999999984
    vertex 135.82500000000002 119.7250000000001 5.649999999999995
  endloop
endfacet
facet normal -6.409014733063395e-17 -2.7150378658539295e-17 1.0
  outer loop
    vertex 44.17499999999999 90.27500000000003 8.149999999999988
    vertex 49.17499999999999 85.27500000000003 8.149999999999988
    vertex 54.175 90.27500000000005 8.149999999999988
  endloop
endfacet
facet normal -6.409014733063395e-17 -2.7150378658539295e-17 1.0
  outer loop
    vertex 49.17499999999999 85.27500000000003 8.149999999999988
    vertex 44.17499999999999 90.27500000000003 8.149999999999988
    vertex 44.17500000000001 69.72500000000004 8.149999999999986
  endloop
endfacet
facet normal -6.409014733063395e-17 -2.7150378658539295e-17 1.0
  outer loop
    vertex 49.17499999999999 85.27500000000003 8.149999999999988
    vertex 44.17500000000001 69.72500000000004 8.149999999999986
    vertex 49.175 74.72500000000004 8.149999999999988
  endloop
endfacet
facet normal -6.409014733063395e-17 -2.7150378658539295e-17 1.0
  outer loop
    vertex 49.175 74.72500000000004 8.149999999999988
    vertex 44.17500000000001 69.72500000000004 8.149999999999986
    vertex 54.17500000000002 74.72500000000001 8.149999999999988
  endloop
endfacet
facet normal -6.409014733063395e-17 -2.7150378658539295e-17 1.0
  outer loop
    vertex 54.17500000000002 74.72500000000001 8.149999999999988
    vertex 44.17500000000001 69.72500000000004 8.149999999999986
    vertex 54.17500000000002 69.72500000000002 8.149999999999988
  endloop
endfacet
facet normal -6.409014733063395e-17 -2.7150378658539295e-17 1.0
  outer loop
    vertex 54.175 85.27500000000003 8.149999999999988
    vertex 54.175 90.27500000000005 8.149999999999988
    vertex 49.17499999999999 85.27500000000003 8.149999999999988
  endloop
endfacet
facet normal 4.511946372076614e-15 1.0 4.039723169048205e-31
  outer loop
    vertex 54.17500000000002 74.72500000000001 8.149999999999988
    vertex 49.175 74.72500000000004 5.6499999999999915
    vertex 49.175 74.72500000000004 8.149999999999988
  endloop
endfacet
facet normal 4.511946372076614e-15 1.0 4.039723169048205e-31
  outer loop
    vertex 49.175 74.72500000000004 5.6499999999999915
    vertex 54.17500000000002 74.72500000000001 8.149999999999988
    vertex 54.17500000000002 74.72500000000001 5.6499999999999915
  endloop
endfacet
facet normal 1.0 5.345908023787482e-16 6.409014733063396e-17
  outer loop
    vertex 49.17499999999999 85.27500000000003 8.149999999999988
    vertex 49.175 74.72500000000004 5.6499999999999915
    vertex 49.17499999999999 85.27500000000003 5.6499999999999915
  endloop
endfacet
facet normal 1.0 5.345908023787482e-16 6.409014733063396e-17
  outer loop
    vertex 49.175 74.72500000000004 5.6499999999999915
    vertex 49.17499999999999 85.27500000000003 8.149999999999988
    vertex 49.175 74.72500000000004 8.149999999999988
  endloop
endfacet
facet normal -2.255973186038315e-15 -1.0 2.8703959522490647e-45
  outer loop
    vertex 54.175 85.27500000000003 5.6499999999999915
    vertex 49.17499999999999 85.27500000000003 8.149999999999988
    vertex 49.17499999999999 85.27500000000003 5.6499999999999915
  endloop
endfacet
facet normal -2.255973186038315e-15 -1.0 2.8703959522490647e-45
  outer loop
    vertex 49.17499999999999 85.27500000000003 8.149999999999988
    vertex 54.175 85.27500000000003 5.6499999999999915
    vertex 54.175 85.27500000000003 8.149999999999988
  endloop
endfacet
facet normal 0.0 0.0 1.0
  outer loop
    vertex 44.17499999999998 114.7250000000001 8.149999999999979
    vertex 49.17499999999996 130.27500000000003 8.149999999999979
    vertex 44.17499999999996 132.77500000000003 8.149999999999979
  endloop
endfacet
facet normal 0.0 0.0 1.0
  outer loop
    vertex 49.17499999999996 130.27500000000003 8.149999999999979
    vertex 44.17499999999998 114.7250000000001 8.149999999999979
    vertex 49.17499999999997 119.72500000000002 8.149999999999979
  endloop
endfacet
facet normal 0.0 0.0 1.0
  outer loop
    vertex 49.17499999999997 119.72500000000002 8.149999999999979
    vertex 44.17499999999998 114.7250000000001 8.149999999999979
    vertex 54.174999999999976 119.72500000000002 8.149999999999979
  endloop
endfacet
facet normal 0.0 0.0 1.0
  outer loop
    vertex 54.174999999999976 119.72500000000002 8.149999999999979
    vertex 44.17499999999998 114.7250000000001 8.149999999999979
    vertex 54.174999999999976 114.7250000000001 8.149999999999979
  endloop
endfacet
facet normal 0.0 0.0 1.0
  outer loop
    vertex 44.17499999999996 132.77500000000003 8.149999999999979
    vertex 54.175 135.27500000000003 8.149999999999979
    vertex 46.67499999999997 135.27500000000003 8.149999999999979
  endloop
endfacet
facet normal 0.0 0.0 1.0
  outer loop
    vertex 54.175 135.27500000000003 8.149999999999979
    vertex 44.17499999999996 132.77500000000003 8.149999999999979
    vertex 54.174999999999976 130.27500000000003 8.149999999999979
  endloop
endfacet
facet normal 0.0 0.0 1.0
  outer loop
    vertex 54.174999999999976 130.27500000000003 8.149999999999979
    vertex 44.17499999999996 132.77500000000003 8.149999999999979
    vertex 49.17499999999996 130.27500000000003 8.149999999999979
  endloop
endfacet
facet normal 0.0 1.0 0.0
  outer loop
    vertex 54.174999999999976 119.72500000000002 8.149999999999979
    vertex 49.17499999999997 119.72500000000002 5.649999999999995
    vertex 49.17499999999997 119.72500000000002 8.149999999999979
  endloop
endfacet
facet normal 0.0 1.0 0.0
  outer loop
    vertex 49.17499999999997 119.72500000000002 5.649999999999995
    vertex 54.174999999999976 119.72500000000002 8.149999999999979
    vertex 54.174999999999976 119.72500000000002 5.649999999999995
  endloop
endfacet
facet normal 1.0 1.0691816047574951e-15 0.0
  outer loop
    vertex 49.17499999999996 130.27500000000003 8.149999999999979
    vertex 49.17499999999997 119.72500000000002 5.649999999999995
    vertex 49.17499999999996 130.27500000000003 5.649999999999995
  endloop
endfacet
facet normal 1.0 1.0691816047574951e-15 0.0
  outer loop
    vertex 49.17499999999997 119.72500000000002 5.649999999999995
    vertex 49.17499999999996 130.27500000000003 8.149999999999979
    vertex 49.17499999999997 119.72500000000002 8.149999999999979
  endloop
endfacet
facet normal 0.0 -1.0 0.0
  outer loop
    vertex 54.174999999999976 130.27500000000003 5.649999999999995
    vertex 49.17499999999996 130.27500000000003 8.149999999999979
    vertex 49.17499999999996 130.27500000000003 5.649999999999995
  endloop
endfacet
facet normal 0.0 -1.0 0.0
  outer loop
    vertex 49.17499999999996 130.27500000000003 8.149999999999979
    vertex 54.174999999999976 130.27500000000003 5.649999999999995
    vertex 54.174999999999976 130.27500000000003 8.149999999999979
  endloop
endfacet
facet normal -4.965339234569802e-19 3.398731389268003e-17 -1.0
  outer loop
    vertex 140.82500000000002 68.32500000000009 2.499999999999993
    vertex 123.27645713530754 60.39777747886727 2.4999999999999925
    vertex 122.49999999999997 60.50000000000007 2.4999999999999925
  endloop
endfacet
facet normal -4.965339234569802e-19 3.398731389268003e-17 -1.0
  outer loop
    vertex 123.27645713530754 60.39777747886727 2.4999999999999925
    vertex 140.82500000000002 68.32500000000009 2.499999999999993
    vertex 140.82500000000002 57.500000000000085 2.4999999999999925
  endloop
endfacet
facet normal -4.965339234569802e-19 3.398731389268003e-17 -1.0
  outer loop
    vertex 123.27645713530754 60.39777747886727 2.4999999999999925
    vertex 140.82500000000002 57.500000000000085 2.4999999999999925
    vertex 123.99999999999996 60.09807621135339 2.4999999999999925
  endloop
endfacet
facet normal -4.965339234569802e-19 3.398731389268003e-17 -1.0
  outer loop
    vertex 123.99999999999996 60.09807621135339 2.4999999999999925
    vertex 140.82500000000002 57.500000000000085 2.4999999999999925
    vertex 124.62132034355963 59.62132034355971 2.4999999999999925
  endloop
endfacet
facet normal -4.965339234569802e-19 3.398731389268003e-17 -1.0
  outer loop
    vertex 124.62132034355963 59.62132034355971 2.4999999999999925
    vertex 140.82500000000002 57.500000000000085 2.4999999999999925
    vertex 125.09807621135327 59.00000000000007 2.4999999999999925
  endloop
endfacet
facet normal -4.965339234569802e-19 3.398731389268003e-17 -1.0
  outer loop
    vertex 125.09807621135327 59.00000000000007 2.4999999999999925
    vertex 140.82500000000002 57.500000000000085 2.4999999999999925
    vertex 125.39777747886718 58.27645713530763 2.4999999999999925
  endloop
endfacet
facet normal -4.965339234569802e-19 3.398731389268003e-17 -1.0
  outer loop
    vertex 125.39777747886718 58.27645713530763 2.4999999999999925
    vertex 140.82500000000002 57.500000000000085 2.4999999999999925
    vertex 125.49999999999997 57.50000000000008 2.4999999999999925
  endloop
endfacet
facet normal -4.965339234569802e-19 3.398731389268003e-17 -1.0
  outer loop
    vertex 125.49999999999997 57.50000000000008 2.4999999999999925
    vertex 140.82500000000002 57.500000000000085 2.4999999999999925
    vertex 125.39777747886718 56.72354286469252 2.4999999999999925
  endloop
endfacet
facet normal -4.965339234569802e-19 3.398731389268003e-17 -1.0
  outer loop
    vertex 125.39777747886718 56.72354286469252 2.4999999999999925
    vertex 140.82500000000002 57.500000000000085 2.4999999999999925
    vertex 122.49999999999997 45.00000000000005 2.4999999999999925
  endloop
endfacet
facet normal -4.965339234569802e-19 3.398731389268003e-17 -1.0
  outer loop
    vertex 125.39777747886718 56.72354286469252 2.4999999999999925
    vertex 122.49999999999997 45.00000000000005 2.4999999999999925
    vertex 125.09807621135327 56.00000000000008 2.4999999999999925
  endloop
endfacet
facet normal -4.965339234569802e-19 3.398731389268003e-17 -1.0
  outer loop
    vertex 125.09807621135327 56.00000000000008 2.4999999999999925
    vertex 122.49999999999997 45.00000000000005 2.4999999999999925
    vertex 124.62132034355963 55.37867965644044 2.4999999999999925
  endloop
endfacet
facet normal -4.965339234569802e-19 3.398731389268003e-17 -1.0
  outer loop
    vertex 124.62132034355963 55.37867965644044 2.4999999999999925
    vertex 122.49999999999997 45.00000000000005 2.4999999999999925
    vertex 123.99999999999996 54.90192378864676 2.4999999999999925
  endloop
endfacet
facet normal -4.965339234569802e-19 3.398731389268003e-17 -1.0
  outer loop
    vertex 123.99999999999996 54.90192378864676 2.4999999999999925
    vertex 122.49999999999997 45.00000000000005 2.4999999999999925
    vertex 123.27645713530754 54.60222252113287 2.4999999999999925
  endloop
endfacet
facet normal -4.965339234569802e-19 3.398731389268003e-17 -1.0
  outer loop
    vertex 123.27645713530754 54.60222252113287 2.4999999999999925
    vertex 122.49999999999997 45.00000000000005 2.4999999999999925
    vertex 122.49999999999997 54.50000000000008 2.4999999999999925
  endloop
endfacet
facet normal -4.965339234569802e-19 3.398731389268003e-17 -1.0
  outer loop
    vertex 122.49999999999997 54.50000000000008 2.4999999999999925
    vertex 122.49999999999997 45.00000000000005 2.4999999999999925
    vertex 96.5879253550057 54.50000000000007 2.4999999999999925
  endloop
endfacet
facet normal -4.965339234569802e-19 3.398731389268003e-17 -1.0
  outer loop
    vertex 96.5879253550057 54.50000000000007 2.4999999999999925
    vertex 122.49999999999997 45.00000000000005 2.4999999999999925
    vertex 82.2879253550057 54.50000000000006 2.4999999999999925
  endloop
endfacet
facet normal -4.965339234569802e-19 3.398731389268003e-17 -1.0
  outer loop
    vertex 82.2879253550057 54.50000000000006 2.4999999999999925
    vertex 122.49999999999997 45.00000000000005 2.4999999999999925
    vertex 62.50000000000002 54.50000000000005 2.4999999999999925
  endloop
endfacet
facet normal -4.965339234569802e-19 3.398731389268003e-17 -1.0
  outer loop
    vertex 62.50000000000002 54.50000000000005 2.4999999999999925
    vertex 122.49999999999997 45.00000000000005 2.4999999999999925
    vertex 62.50000000000001 45.00000000000003 2.4999999999999925
  endloop
endfacet
facet normal -4.965339234569802e-19 3.398731389268003e-17 -1.0
  outer loop
    vertex 140.82499999999996 132.7750000000001 2.4999999999999956
    vertex 46.67499999999997 135.27500000000003 2.4999999999999956
    vertex 138.32499999999996 135.2750000000001 2.4999999999999956
  endloop
endfacet
facet normal -4.965339234569802e-19 3.398731389268003e-17 -1.0
  outer loop
    vertex 46.67499999999997 135.27500000000003 2.4999999999999956
    vertex 140.82499999999996 132.7750000000001 2.4999999999999956
    vertex 44.17499999999996 132.77500000000003 2.4999999999999956
  endloop
endfacet
facet normal -4.965339234569802e-19 3.398731389268003e-17 -1.0
  outer loop
    vertex 44.17499999999996 132.77500000000003 2.4999999999999956
    vertex 140.82499999999996 132.7750000000001 2.4999999999999956
    vertex 130.825 119.7250000000001 2.4999999999999956
  endloop
endfacet
facet normal -4.965339234569802e-19 3.398731389268003e-17 -1.0
  outer loop
    vertex 130.825 119.7250000000001 2.4999999999999956
    vertex 140.82499999999996 132.7750000000001 2.4999999999999956
    vertex 140.82500000000002 74.7250000000001 2.4999999999999933
  endloop
endfacet
facet normal -4.965339234569802e-19 3.398731389268003e-17 -1.0
  outer loop
    vertex 130.825 119.7250000000001 2.4999999999999956
    vertex 140.82500000000002 74.7250000000001 2.4999999999999933
    vertex 130.82500000000002 85.27500000000008 2.4999999999999956
  endloop
endfacet
facet normal -4.965339234569802e-19 3.398731389268003e-17 -1.0
  outer loop
    vertex 130.82500000000002 85.27500000000008 2.4999999999999956
    vertex 140.82500000000002 74.7250000000001 2.4999999999999933
    vertex 54.175 85.27500000000003 2.4999999999999956
  endloop
endfacet
facet normal -4.965339234569802e-19 3.398731389268003e-17 -1.0
  outer loop
    vertex 54.175 85.27500000000003 2.4999999999999956
    vertex 140.82500000000002 74.7250000000001 2.4999999999999933
    vertex 44.175000000000004 84.70712770930938 2.499999999999994
  endloop
endfacet
facet normal -4.965339234569802e-19 3.398731389268003e-17 -1.0
  outer loop
    vertex 44.175000000000004 84.70712770930938 2.499999999999994
    vertex 140.82500000000002 74.7250000000001 2.4999999999999933
    vertex 44.17500000000001 81.10712770930938 2.499999999999994
  endloop
endfacet
facet normal -4.965339234569802e-19 3.398731389268003e-17 -1.0
  outer loop
    vertex 44.17500000000001 81.10712770930938 2.499999999999994
    vertex 140.82500000000002 74.7250000000001 2.4999999999999933
    vertex 44.17500000000003 57.50000000000003 2.4999999999999925
  endloop
endfacet
facet normal -4.965339234569802e-19 3.398731389268003e-17 -1.0
  outer loop
    vertex 44.17500000000003 57.50000000000003 2.4999999999999925
    vertex 140.82500000000002 74.7250000000001 2.4999999999999933
    vertex 61.72354286469246 60.39777747886725 2.4999999999999925
  endloop
endfacet
facet normal -4.965339234569802e-19 3.398731389268003e-17 -1.0
  outer loop
    vertex 61.72354286469246 60.39777747886725 2.4999999999999925
    vertex 140.82500000000002 74.7250000000001 2.4999999999999933
    vertex 62.50000000000002 60.500000000000036 2.4999999999999925
  endloop
endfacet
facet normal -4.965339234569802e-19 3.398731389268003e-17 -1.0
  outer loop
    vertex 62.50000000000002 60.500000000000036 2.4999999999999925
    vertex 140.82500000000002 74.7250000000001 2.4999999999999933
    vertex 140.82500000000002 68.32500000000009 2.499999999999993
  endloop
endfacet
facet normal -4.965339234569802e-19 3.398731389268003e-17 -1.0
  outer loop
    vertex 62.50000000000002 60.500000000000036 2.4999999999999925
    vertex 140.82500000000002 68.32500000000009 2.499999999999993
    vertex 122.49999999999997 60.50000000000007 2.4999999999999925
  endloop
endfacet
facet normal -4.965339234569802e-19 3.398731389268003e-17 -1.0
  outer loop
    vertex 62.50000000000002 60.500000000000036 2.4999999999999925
    vertex 122.49999999999997 60.50000000000007 2.4999999999999925
    vertex 70.2303990049106 60.500000000000036 2.4999999999999925
  endloop
endfacet
facet normal -4.965339234569802e-19 3.398731389268003e-17 -1.0
  outer loop
    vertex 62.50000000000002 60.500000000000036 2.4999999999999925
    vertex 70.2303990049106 60.500000000000036 2.4999999999999925
    vertex 63.6303990049106 60.500000000000036 2.4999999999999925
  endloop
endfacet
facet normal -4.965339234569802e-19 3.398731389268003e-17 -1.0
  outer loop
    vertex 44.17500000000003 57.50000000000003 2.4999999999999925
    vertex 61.72354286469246 60.39777747886725 2.4999999999999925
    vertex 61.00000000000002 60.09807621135335 2.4999999999999925
  endloop
endfacet
facet normal -4.965339234569802e-19 3.398731389268003e-17 -1.0
  outer loop
    vertex 44.17500000000003 57.50000000000003 2.4999999999999925
    vertex 61.00000000000002 60.09807621135335 2.4999999999999925
    vertex 60.37867965644038 59.62132034355968 2.4999999999999925
  endloop
endfacet
facet normal -4.965339234569802e-19 3.398731389268003e-17 -1.0
  outer loop
    vertex 44.17500000000003 57.50000000000003 2.4999999999999925
    vertex 60.37867965644038 59.62132034355968 2.4999999999999925
    vertex 59.90192378864671 59.000000000000036 2.4999999999999925
  endloop
endfacet
facet normal -4.965339234569802e-19 3.398731389268003e-17 -1.0
  outer loop
    vertex 44.17500000000003 57.50000000000003 2.4999999999999925
    vertex 59.90192378864671 59.000000000000036 2.4999999999999925
    vertex 59.60222252113283 58.27645713530761 2.4999999999999925
  endloop
endfacet
facet normal -4.965339234569802e-19 3.398731389268003e-17 -1.0
  outer loop
    vertex 44.17500000000003 57.50000000000003 2.4999999999999925
    vertex 59.60222252113283 58.27645713530761 2.4999999999999925
    vertex 59.50000000000003 57.50000000000004 2.4999999999999925
  endloop
endfacet
facet normal -4.965339234569802e-19 3.398731389268003e-17 -1.0
  outer loop
    vertex 44.17500000000003 57.50000000000003 2.4999999999999925
    vertex 59.50000000000003 57.50000000000004 2.4999999999999925
    vertex 59.602222521132816 56.72354286469248 2.4999999999999925
  endloop
endfacet
facet normal -4.965339234569802e-19 3.398731389268003e-17 -1.0
  outer loop
    vertex 44.17500000000003 57.50000000000003 2.4999999999999925
    vertex 59.602222521132816 56.72354286469248 2.4999999999999925
    vertex 62.50000000000001 45.00000000000003 2.4999999999999925
  endloop
endfacet
facet normal -4.965339234569802e-19 3.398731389268003e-17 -1.0
  outer loop
    vertex 62.50000000000001 45.00000000000003 2.4999999999999925
    vertex 59.602222521132816 56.72354286469248 2.4999999999999925
    vertex 59.90192378864672 56.00000000000004 2.4999999999999925
  endloop
endfacet
facet normal -4.965339234569802e-19 3.398731389268003e-17 -1.0
  outer loop
    vertex 62.50000000000001 45.00000000000003 2.4999999999999925
    vertex 59.90192378864672 56.00000000000004 2.4999999999999925
    vertex 60.3786796564404 55.378679656440404 2.4999999999999925
  endloop
endfacet
facet normal -4.965339234569802e-19 3.398731389268003e-17 -1.0
  outer loop
    vertex 62.50000000000001 45.00000000000003 2.4999999999999925
    vertex 60.3786796564404 55.378679656440404 2.4999999999999925
    vertex 61.00000000000002 54.90192378864673 2.4999999999999925
  endloop
endfacet
facet normal -4.965339234569802e-19 3.398731389268003e-17 -1.0
  outer loop
    vertex 62.50000000000001 45.00000000000003 2.4999999999999925
    vertex 61.00000000000002 54.90192378864673 2.4999999999999925
    vertex 61.72354286469246 54.602222521132845 2.4999999999999925
  endloop
endfacet
facet normal -4.965339234569802e-19 3.398731389268003e-17 -1.0
  outer loop
    vertex 62.50000000000001 45.00000000000003 2.4999999999999925
    vertex 61.72354286469246 54.602222521132845 2.4999999999999925
    vertex 62.50000000000002 54.50000000000005 2.4999999999999925
  endloop
endfacet
facet normal -4.965339234569802e-19 3.398731389268003e-17 -1.0
  outer loop
    vertex 44.17499999999996 132.77500000000003 2.4999999999999956
    vertex 54.174999999999976 119.72500000000002 2.4999999999999956
    vertex 44.175000000000004 84.70712770930938 2.499999999999994
  endloop
endfacet
facet normal -4.965339234569802e-19 3.398731389268003e-17 -1.0
  outer loop
    vertex 54.174999999999976 119.72500000000002 2.4999999999999956
    vertex 44.17499999999996 132.77500000000003 2.4999999999999956
    vertex 130.825 119.7250000000001 2.4999999999999956
  endloop
endfacet
facet normal -4.965339234569802e-19 3.398731389268003e-17 -1.0
  outer loop
    vertex 44.175000000000004 84.70712770930938 2.499999999999994
    vertex 54.174999999999976 119.72500000000002 2.4999999999999956
    vertex 54.175 85.27500000000003 2.4999999999999956
  endloop
endfacet
facet normal 5.639932965095799e-16 -1.0 -2.0037902241614243e-17
  outer loop
    vertex 63.6303990049106 60.500000000000036 2.4999999999999925
    vertex 62.50000000000002 60.500000000000036 3.499999999999992
    vertex 62.50000000000002 60.500000000000036 2.4999999999999925
  endloop
endfacet
facet normal 5.639932965095799e-16 -1.0 -2.0037902241614243e-17
  outer loop
    vertex 62.50000000000002 60.500000000000036 3.499999999999992
    vertex 63.6303990049106 60.500000000000036 2.4999999999999925
    vertex 122.49999999999997 60.50000000000007 3.499999999999992
  endloop
endfacet
facet normal 5.639932965095799e-16 -1.0 -2.0037902241614243e-17
  outer loop
    vertex 122.49999999999997 60.50000000000007 3.499999999999992
    vertex 63.6303990049106 60.500000000000036 2.4999999999999925
    vertex 70.2303990049106 60.500000000000036 2.4999999999999925
  endloop
endfacet
facet normal 5.639932965095799e-16 -1.0 -2.0037902241614243e-17
  outer loop
    vertex 122.49999999999997 60.50000000000007 3.499999999999992
    vertex 70.2303990049106 60.500000000000036 2.4999999999999925
    vertex 122.49999999999997 60.50000000000007 2.4999999999999925
  endloop
endfacet
facet normal -5.639932965095799e-16 1.0 2.0037902241614243e-17
  outer loop
    vertex 113.90945629865344 54.50000000000007 3.499999999999992
    vertex 62.50000000000002 54.50000000000005 2.4999999999999925
    vertex 62.50000000000002 54.50000000000005 3.499999999999992
  endloop
endfacet
facet normal -5.639932965095799e-16 1.0 2.0037902241614243e-17
  outer loop
    vertex 62.50000000000002 54.50000000000005 2.4999999999999925
    vertex 113.90945629865344 54.50000000000007 3.499999999999992
    vertex 82.2879253550057 54.50000000000006 2.4999999999999925
  endloop
endfacet
facet normal -5.639932965095799e-16 1.0 2.0037902241614243e-17
  outer loop
    vertex 82.2879253550057 54.50000000000006 2.4999999999999925
    vertex 113.90945629865344 54.50000000000007 3.499999999999992
    vertex 96.5879253550057 54.50000000000007 2.4999999999999925
  endloop
endfacet
facet normal -5.639932965095799e-16 1.0 2.0037902241614243e-17
  outer loop
    vertex 96.5879253550057 54.50000000000007 2.4999999999999925
    vertex 113.90945629865344 54.50000000000007 3.499999999999992
    vertex 122.49999999999997 54.50000000000008 2.4999999999999925
  endloop
endfacet
facet normal -5.639932965095799e-16 1.0 2.0037902241614243e-17
  outer loop
    vertex 122.49999999999997 54.50000000000008 2.4999999999999925
    vertex 113.90945629865344 54.50000000000007 3.499999999999992
    vertex 118.60945629865343 54.50000000000008 3.499999999999992
  endloop
endfacet
facet normal -5.639932965095799e-16 1.0 2.0037902241614243e-17
  outer loop
    vertex 122.49999999999997 54.50000000000008 2.4999999999999925
    vertex 118.60945629865343 54.50000000000008 3.499999999999992
    vertex 122.49999999999997 54.50000000000008 3.499999999999992
  endloop
endfacet
facet normal 3.759955310063865e-16 -1.0 -2.0037902241614243e-17
  outer loop
    vertex 122.49999999999997 45.00000000000005 2.4999999999999925
    vertex 62.50000000000001 45.00000000000003 3.499999999999992
    vertex 62.50000000000001 45.00000000000003 2.4999999999999925
  endloop
endfacet
facet normal 3.759955310063865e-16 -1.0 -2.0037902241614243e-17
  outer loop
    vertex 62.50000000000001 45.00000000000003 3.499999999999992
    vertex 122.49999999999997 45.00000000000005 2.4999999999999925
    vertex 122.49999999999997 45.00000000000005 3.499999999999992
  endloop
endfacet
facet normal -5.691571918142366e-20 -1.013687501362556e-16 1.0
  outer loop
    vertex 44.17500000000003 57.50000000000003 3.499999999999992
    vertex 54.17500000000002 69.72500000000002 3.499999999999995
    vertex 44.17500000000001 69.72500000000004 3.499999999999994
  endloop
endfacet
facet normal -5.691571918142366e-20 -1.013687501362556e-16 1.0
  outer loop
    vertex 54.17500000000002 69.72500000000002 3.499999999999995
    vertex 44.17500000000003 57.50000000000003 3.499999999999992
    vertex 61.72354286469246 60.39777747886725 3.499999999999992
  endloop
endfacet
facet normal -5.691571918142366e-20 -1.013687501362556e-16 1.0
  outer loop
    vertex 54.17500000000002 69.72500000000002 3.499999999999995
    vertex 61.72354286469246 60.39777747886725 3.499999999999992
    vertex 62.50000000000002 60.500000000000036 3.499999999999992
  endloop
endfacet
facet normal -5.691571918142366e-20 -1.013687501362556e-16 1.0
  outer loop
    vertex 61.72354286469246 60.39777747886725 3.499999999999992
    vertex 44.17500000000003 57.50000000000003 3.499999999999992
    vertex 61.00000000000002 60.09807621135335 3.499999999999992
  endloop
endfacet
facet normal -5.691571918142366e-20 -1.013687501362556e-16 1.0
  outer loop
    vertex 61.00000000000002 60.09807621135335 3.499999999999992
    vertex 44.17500000000003 57.50000000000003 3.499999999999992
    vertex 60.37867965644038 59.62132034355968 3.499999999999992
  endloop
endfacet
facet normal -5.691571918142366e-20 -1.013687501362556e-16 1.0
  outer loop
    vertex 60.37867965644038 59.62132034355968 3.499999999999992
    vertex 44.17500000000003 57.50000000000003 3.499999999999992
    vertex 59.90192378864671 59.000000000000036 3.499999999999992
  endloop
endfacet
facet normal -5.691571918142366e-20 -1.013687501362556e-16 1.0
  outer loop
    vertex 59.90192378864671 59.000000000000036 3.499999999999992
    vertex 44.17500000000003 57.50000000000003 3.499999999999992
    vertex 59.60222252113283 58.27645713530761 3.499999999999992
  endloop
endfacet
facet normal -5.691571918142366e-20 -1.013687501362556e-16 1.0
  outer loop
    vertex 59.60222252113283 58.27645713530761 3.499999999999992
    vertex 44.17500000000003 57.50000000000003 3.499999999999992
    vertex 59.50000000000003 57.50000000000004 3.499999999999992
  endloop
endfacet
facet normal -5.691571918142366e-20 -1.013687501362556e-16 1.0
  outer loop
    vertex 59.50000000000003 57.50000000000004 3.499999999999992
    vertex 44.17500000000003 57.50000000000003 3.499999999999992
    vertex 59.602222521132816 56.72354286469248 3.499999999999992
  endloop
endfacet
facet normal -5.691571918142366e-20 -1.013687501362556e-16 1.0
  outer loop
    vertex 59.602222521132816 56.72354286469248 3.499999999999992
    vertex 44.17500000000003 57.50000000000003 3.499999999999992
    vertex 62.50000000000001 45.00000000000003 3.499999999999992
  endloop
endfacet
facet normal -5.691571918142366e-20 -1.013687501362556e-16 1.0
  outer loop
    vertex 59.602222521132816 56.72354286469248 3.499999999999992
    vertex 62.50000000000001 45.00000000000003 3.499999999999992
    vertex 59.90192378864672 56.00000000000004 3.499999999999992
  endloop
endfacet
facet normal -5.691571918142366e-20 -1.013687501362556e-16 1.0
  outer loop
    vertex 59.90192378864672 56.00000000000004 3.499999999999992
    vertex 62.50000000000001 45.00000000000003 3.499999999999992
    vertex 60.3786796564404 55.378679656440404 3.499999999999992
  endloop
endfacet
facet normal -5.691571918142366e-20 -1.013687501362556e-16 1.0
  outer loop
    vertex 60.3786796564404 55.378679656440404 3.499999999999992
    vertex 62.50000000000001 45.00000000000003 3.499999999999992
    vertex 61.00000000000002 54.90192378864673 3.499999999999992
  endloop
endfacet
facet normal -5.691571918142366e-20 -1.013687501362556e-16 1.0
  outer loop
    vertex 61.00000000000002 54.90192378864673 3.499999999999992
    vertex 62.50000000000001 45.00000000000003 3.499999999999992
    vertex 61.72354286469246 54.602222521132845 3.499999999999992
  endloop
endfacet
facet normal -5.691571918142366e-20 -1.013687501362556e-16 1.0
  outer loop
    vertex 61.72354286469246 54.602222521132845 3.499999999999992
    vertex 62.50000000000001 45.00000000000003 3.499999999999992
    vertex 62.50000000000002 54.50000000000005 3.499999999999992
  endloop
endfacet
facet normal -5.691571918142366e-20 -1.013687501362556e-16 1.0
  outer loop
    vertex 62.50000000000002 54.50000000000005 3.499999999999992
    vertex 62.50000000000001 45.00000000000003 3.499999999999992
    vertex 113.90945629865344 54.50000000000007 3.499999999999992
  endloop
endfacet
facet normal -5.691571918142366e-20 -1.013687501362556e-16 1.0
  outer loop
    vertex 113.90945629865344 54.50000000000007 3.499999999999992
    vertex 62.50000000000001 45.00000000000003 3.499999999999992
    vertex 118.60945629865343 54.50000000000008 3.499999999999992
  endloop
endfacet
facet normal -5.691571918142366e-20 -1.013687501362556e-16 1.0
  outer loop
    vertex 118.60945629865343 54.50000000000008 3.499999999999992
    vertex 62.50000000000001 45.00000000000003 3.499999999999992
    vertex 122.49999999999997 54.50000000000008 3.499999999999992
  endloop
endfacet
facet normal -5.691571918142366e-20 -1.013687501362556e-16 1.0
  outer loop
    vertex 122.49999999999997 54.50000000000008 3.499999999999992
    vertex 62.50000000000001 45.00000000000003 3.499999999999992
    vertex 128.530589163794 49.113635173120095 3.499999999999992
  endloop
endfacet
facet normal -5.691571918142366e-20 -1.013687501362556e-16 1.0
  outer loop
    vertex 128.530589163794 49.113635173120095 3.499999999999992
    vertex 62.50000000000001 45.00000000000003 3.499999999999992
    vertex 122.49999999999997 45.00000000000005 3.499999999999992
  endloop
endfacet
facet normal -5.691571918142366e-20 -1.013687501362556e-16 1.0
  outer loop
    vertex 54.17500000000002 74.72500000000002 3.499999999999995
    vertex 130.82500000000002 69.7250000000001 3.499999999999995
    vertex 130.82500000000002 74.7250000000001 3.499999999999995
  endloop
endfacet
facet normal -5.691571918142366e-20 -1.013687501362556e-16 1.0
  outer loop
    vertex 130.82500000000002 69.7250000000001 3.499999999999995
    vertex 54.17500000000002 74.72500000000002 3.499999999999995
    vertex 54.17500000000002 69.72500000000002 3.499999999999995
  endloop
endfacet
facet normal -5.691571918142366e-20 -1.013687501362556e-16 1.0
  outer loop
    vertex 130.82500000000002 69.7250000000001 3.499999999999995
    vertex 54.17500000000002 69.72500000000002 3.499999999999995
    vertex 140.82500000000002 69.7250000000001 3.499999999999994
  endloop
endfacet
facet normal -5.691571918142366e-20 -1.013687501362556e-16 1.0
  outer loop
    vertex 140.82500000000002 69.7250000000001 3.499999999999994
    vertex 54.17500000000002 69.72500000000002 3.499999999999995
    vertex 123.27645713530754 60.39777747886727 3.499999999999992
  endloop
endfacet
facet normal -5.691571918142366e-20 -1.013687501362556e-16 1.0
  outer loop
    vertex 140.82500000000002 69.7250000000001 3.499999999999994
    vertex 123.27645713530754 60.39777747886727 3.499999999999992
    vertex 140.82500000000002 57.500000000000085 3.499999999999992
  endloop
endfacet
facet normal -5.691571918142366e-20 -1.013687501362556e-16 1.0
  outer loop
    vertex 123.27645713530754 60.39777747886727 3.499999999999992
    vertex 54.17500000000002 69.72500000000002 3.499999999999995
    vertex 122.49999999999997 60.50000000000007 3.499999999999992
  endloop
endfacet
facet normal -5.691571918142366e-20 -1.013687501362556e-16 1.0
  outer loop
    vertex 122.49999999999997 60.50000000000007 3.499999999999992
    vertex 54.17500000000002 69.72500000000002 3.499999999999995
    vertex 62.50000000000002 60.500000000000036 3.499999999999992
  endloop
endfacet
facet normal -5.691571918142366e-20 -1.013687501362556e-16 1.0
  outer loop
    vertex 140.82500000000002 57.500000000000085 3.499999999999992
    vertex 123.27645713530754 60.39777747886727 3.499999999999992
    vertex 123.99999999999996 60.09807621135339 3.499999999999992
  endloop
endfacet
facet normal -5.691571918142366e-20 -1.013687501362556e-16 1.0
  outer loop
    vertex 140.82500000000002 57.500000000000085 3.499999999999992
    vertex 123.99999999999996 60.09807621135339 3.499999999999992
    vertex 124.62132034355963 59.62132034355971 3.499999999999992
  endloop
endfacet
facet normal -5.691571918142366e-20 -1.013687501362556e-16 1.0
  outer loop
    vertex 140.82500000000002 57.500000000000085 3.499999999999992
    vertex 124.62132034355963 59.62132034355971 3.499999999999992
    vertex 125.09807621135327 59.00000000000007 3.499999999999992
  endloop
endfacet
facet normal -5.691571918142366e-20 -1.013687501362556e-16 1.0
  outer loop
    vertex 140.82500000000002 57.500000000000085 3.499999999999992
    vertex 125.09807621135327 59.00000000000007 3.499999999999992
    vertex 125.39777747886718 58.27645713530763 3.499999999999992
  endloop
endfacet
facet normal -5.691571918142366e-20 -1.013687501362556e-16 1.0
  outer loop
    vertex 140.82500000000002 57.500000000000085 3.499999999999992
    vertex 125.39777747886718 58.27645713530763 3.499999999999992
    vertex 125.49999999999997 57.50000000000008 3.499999999999992
  endloop
endfacet
facet normal -5.691571918142366e-20 -1.013687501362556e-16 1.0
  outer loop
    vertex 140.82500000000002 57.500000000000085 3.499999999999992
    vertex 125.49999999999997 57.50000000000008 3.499999999999992
    vertex 125.39777747886718 56.72354286469252 3.499999999999992
  endloop
endfacet
facet normal -5.691571918142366e-20 -1.013687501362556e-16 1.0
  outer loop
    vertex 140.82500000000002 57.500000000000085 3.499999999999992
    vertex 125.39777747886718 56.72354286469252 3.499999999999992
    vertex 128.530589163794 49.113635173120095 3.499999999999992
  endloop
endfacet
facet normal -5.691571918142366e-20 -1.013687501362556e-16 1.0
  outer loop
    vertex 128.530589163794 49.113635173120095 3.499999999999992
    vertex 125.39777747886718 56.72354286469252 3.499999999999992
    vertex 125.09807621135327 56.00000000000008 3.499999999999992
  endloop
endfacet
facet normal -5.691571918142366e-20 -1.013687501362556e-16 1.0
  outer loop
    vertex 128.530589163794 49.113635173120095 3.499999999999992
    vertex 125.09807621135327 56.00000000000008 3.499999999999992
    vertex 124.62132034355963 55.37867965644044 3.499999999999992
  endloop
endfacet
facet normal -5.691571918142366e-20 -1.013687501362556e-16 1.0
  outer loop
    vertex 128.530589163794 49.113635173120095 3.499999999999992
    vertex 124.62132034355963 55.37867965644044 3.499999999999992
    vertex 123.99999999999996 54.90192378864676 3.499999999999992
  endloop
endfacet
facet normal -5.691571918142366e-20 -1.013687501362556e-16 1.0
  outer loop
    vertex 128.530589163794 49.113635173120095 3.499999999999992
    vertex 123.99999999999996 54.90192378864676 3.499999999999992
    vertex 123.27645713530754 54.60222252113287 3.499999999999992
  endloop
endfacet
facet normal -5.691571918142366e-20 -1.013687501362556e-16 1.0
  outer loop
    vertex 128.530589163794 49.113635173120095 3.499999999999992
    vertex 123.27645713530754 54.60222252113287 3.499999999999992
    vertex 122.49999999999997 54.50000000000008 3.499999999999992
  endloop
endfacet
facet normal -1.0 0.0 0.0
  outer loop
    vertex 130.82500000000002 69.7250000000001 8.149999999999991
    vertex 130.82500000000002 74.7250000000001 3.499999999999995
    vertex 130.82500000000002 69.7250000000001 3.499999999999995
  endloop
endfacet
facet normal -1.0 0.0 0.0
  outer loop
    vertex 130.82500000000002 74.7250000000001 3.499999999999995
    vertex 130.82500000000002 69.7250000000001 8.149999999999991
    vertex 130.82500000000002 74.7250000000001 5.649999999999995
  endloop
endfacet
facet normal -1.0 0.0 0.0
  outer loop
    vertex 130.82500000000002 74.7250000000001 5.649999999999995
    vertex 130.82500000000002 69.7250000000001 8.149999999999991
    vertex 130.82500000000002 74.7250000000001 8.149999999999991
  endloop
endfacet
facet normal 8.829640649856432e-16 -1.0 -5.246449269856553e-15
  outer loop
    vertex 130.82500000000002 74.7250000000001 3.499999999999995
    vertex 54.17500000000002 74.72500000000001 5.6499999999999915
    vertex 54.17500000000002 74.72500000000002 3.499999999999995
  endloop
endfacet
facet normal 8.829640649856432e-16 -1.0 -5.246449269856553e-15
  outer loop
    vertex 54.17500000000002 74.72500000000001 5.6499999999999915
    vertex 130.82500000000002 74.7250000000001 3.499999999999995
    vertex 130.82500000000002 74.7250000000001 5.649999999999995
  endloop
endfacet
facet normal 1.0 0.0 0.0
  outer loop
    vertex 54.17500000000002 74.72500000000001 5.6499999999999915
    vertex 54.17500000000002 69.72500000000002 3.499999999999995
    vertex 54.17500000000002 74.72500000000002 3.499999999999995
  endloop
endfacet
facet normal 1.0 0.0 0.0
  outer loop
    vertex 54.17500000000002 69.72500000000002 3.499999999999995
    vertex 54.17500000000002 74.72500000000001 5.6499999999999915
    vertex 54.17500000000002 69.72500000000002 8.149999999999988
  endloop
endfacet
facet normal 1.0 0.0 0.0
  outer loop
    vertex 54.17500000000002 69.72500000000002 8.149999999999988
    vertex 54.17500000000002 74.72500000000001 5.6499999999999915
    vertex 54.17500000000002 74.72500000000001 8.149999999999988
  endloop
endfacet
endsolid HOTAS_Throttle
